<svg viewBox="0 0 48 48" xmlns="http://www.w3.org/2000/svg" xmlns:xlink="http://www.w3.org/1999/xlink" width="48.000000" height="48.000000" fill="none">
	<rect id="Frame" width="48.000000" height="48.000000" x="0.000000" y="0.000000" fill="rgb(255,255,255)" fill-opacity="0" />
	<g id="Group">
		<path id="Vector" d="M24 47.25C36.8406 47.25 47.25 36.8406 47.25 24C47.25 11.1594 36.8406 0.75 24 0.75C11.1594 0.75 0.75 11.1594 0.75 24C0.75 36.8406 11.1594 47.25 24 47.25Z" fill="rgb(230,236,255)" fill-rule="evenodd" />
		<g id="Group">
			<path id="Vector" d="M42.6577 37.8565C40.4893 34.9535 37.6737 32.5963 34.4347 30.9721C31.1956 29.3479 27.6223 28.5017 23.9989 28.5005C20.3754 28.4993 16.8016 29.3433 13.5615 30.9654C10.3214 32.5875 7.50424 34.9429 5.33398 37.8445C7.49314 40.761 10.3056 43.1309 13.5459 44.7643C16.7862 46.3976 20.3641 47.249 23.9928 47.2502C27.6215 47.2514 31.2 46.4023 34.4414 44.771C37.6827 43.1397 40.4967 40.7716 42.6577 37.8565Z" fill="rgb(66,148,255)" fill-rule="nonzero" />
			<path id="Vector" d="M24 25.5C28.9706 25.5 33 21.4706 33 16.5C33 11.5294 28.9706 7.5 24 7.5C19.0294 7.5 15 11.5294 15 16.5C15 21.4706 19.0294 25.5 24 25.5Z" fill="rgb(66,148,255)" fill-rule="evenodd" />
		</g>
	</g>
</svg>
