<svg viewBox="0 0 46 46" xmlns="http://www.w3.org/2000/svg" xmlns:xlink="http://www.w3.org/1999/xlink" width="46.000000" height="46.000000" fill="none">
	<rect id="Frame" width="46.000000" height="46.000000" x="0.000000" y="0.000000" fill="rgb(255,255,255)" fill-opacity="0" />
	<g id="Layer_2">
		<g id="Group">
			<path id="Vector" d="M30.1875 34.5L25.875 34.5L25.875 8.625L35.9375 8.625L43.125 23L43.125 34.5L38.8125 34.5" fill-rule="nonzero" stroke="rgb(6.75278,19.9986,49.3472)" stroke-linecap="round" stroke-linejoin="round" stroke-width="2" />
			<path id="Vector" d="M7.1875 34.5L2.875 34.5L2.875 25.875L25.875 25.875L25.875 34.5L15.8125 34.5" fill-rule="nonzero" stroke="rgb(6.75278,19.9986,49.3472)" stroke-linecap="round" stroke-linejoin="round" stroke-width="2" />
			<path id="Vector" d="M34.5 38.8125C32.1183 38.8125 30.1875 36.8817 30.1875 34.5C30.1875 32.1183 32.1183 30.1875 34.5 30.1875C36.8817 30.1875 38.8125 32.1183 38.8125 34.5C38.8125 36.8817 36.8817 38.8125 34.5 38.8125Z" stroke="rgb(6.75278,19.9986,49.3472)" stroke-linecap="round" stroke-linejoin="round" stroke-width="2" />
			<path id="Vector" d="M11.5 38.8125C9.11827 38.8125 7.1875 36.8817 7.1875 34.5C7.1875 32.1183 9.11827 30.1875 11.5 30.1875C13.8817 30.1875 15.8125 32.1183 15.8125 34.5C15.8125 36.8817 13.8817 38.8125 11.5 38.8125Z" stroke="rgb(6.75278,19.9986,49.3472)" stroke-linecap="round" stroke-linejoin="round" stroke-width="2" />
			<path id="Vector" d="M4.3125 17.25L4.3125 11.5C4.3125 9.91875 5.60625 8.625 7.1875 8.625C8.76875 8.625 10.0625 9.91875 10.0625 11.5L10.0625 17.25C10.0625 18.8312 8.76875 20.125 7.1875 20.125C5.60625 20.125 4.3125 18.8312 4.3125 17.25Z" fill-rule="nonzero" stroke="rgb(6.75278,19.9986,49.3472)" stroke-linecap="round" stroke-linejoin="round" stroke-width="2" />
			<g id="Group">
				<path id="Vector" d="M15.0938 11.5C16.2846 11.5 17.25 10.5346 17.25 9.34375C17.25 8.15289 16.2846 7.1875 15.0938 7.1875C13.9029 7.1875 12.9375 8.15289 12.9375 9.34375C12.9375 10.5346 13.9029 11.5 15.0938 11.5Z" fill="rgb(6.75278,19.9986,49.3472)" fill-rule="evenodd" />
			</g>
			<g id="Group">
				<path id="Vector" d="M20.8438 21.5625C22.0346 21.5625 23 20.5971 23 19.4062C23 18.2154 22.0346 17.25 20.8438 17.25C19.6529 17.25 18.6875 18.2154 18.6875 19.4062C18.6875 20.5971 19.6529 21.5625 20.8438 21.5625Z" fill="rgb(6.75278,19.9986,49.3472)" fill-rule="evenodd" />
			</g>
			<path id="Vector" d="M21.5625 8.625L14.375 20.125" stroke="rgb(6.75278,19.9986,49.3472)" stroke-linecap="round" stroke-linejoin="round" stroke-width="2" />
			<path id="Vector" d="M30.1875 8.625L30.1875 20.125L41.6875 20.125" fill-rule="nonzero" stroke="rgb(6.75278,19.9986,49.3472)" stroke-linecap="round" stroke-linejoin="round" stroke-width="2" />
		</g>
	</g>
</svg>
