<svg viewBox="0 0 48 48" xmlns="http://www.w3.org/2000/svg" xmlns:xlink="http://www.w3.org/1999/xlink" width="48.000000" height="48.000000" fill="none">
	<rect id="Frame" width="48.000000" height="48.000000" x="0.000000" y="0.000000" fill="rgb(255,255,255)" fill-opacity="0" />
	<g id="Group">
		<path id="Vector" d="M14.6221 17.5378L18.2084 17.5378C19.5481 15.08 21.8377 13.2164 24.5857 12.4418C24.0328 11.0995 22.7126 10.1546 21.1714 10.1546C20.7861 10.1546 20.4149 10.2139 20.0661 10.3231C20.0679 10.2671 20.0704 10.2111 20.0704 10.1546C20.0704 7.41294 17.8472 5.18994 15.1054 5.18994C12.7407 5.18994 10.7639 6.84294 10.2639 9.0561C9.9596 8.95451 9.64083 8.90278 9.31998 8.90291C8.30429 8.90291 7.40766 9.41141 6.87001 10.1876C6.56319 10.1084 6.24759 10.0683 5.93073 10.0683C3.86823 10.0683 2.19629 11.7403 2.19629 13.8029C2.19629 15.8652 3.86832 17.5376 5.93073 17.5376L11.9014 17.5376" fill="rgb(159,222,247)" fill-rule="nonzero" />
		<path id="Vector" d="M35.0191 15.2773C33.1003 13.2249 30.3685 11.9419 27.3371 11.9419C22.3301 11.9419 18.1434 15.443 17.0844 20.1301C16.4401 19.9148 15.7652 19.805 15.0858 19.8051C12.9346 19.8051 11.0362 20.8823 9.8976 22.5259C9.24792 22.3581 8.57959 22.2733 7.90859 22.2736C3.54076 22.2736 0 25.8143 0 30.1822C0 34.5498 3.54076 38.091 7.90859 38.091L16.6284 38.091C16.6468 35.4027 18.8305 33.2293 21.5227 33.2293C22.0198 33.2289 22.514 33.3042 22.9883 33.4526C22.9862 33.3786 22.9828 33.3043 22.9828 33.2293C22.9828 29.593 25.9305 26.6452 29.5667 26.6452C32.702 26.6452 35.3239 28.8378 35.987 31.7725C36.3904 31.6377 36.8129 31.569 37.2382 31.5691C38.5852 31.5691 39.7743 32.2435 40.4871 33.273C40.8939 33.1678 41.3124 33.1146 41.7325 33.1148C43.5354 33.1148 45.1129 34.0784 45.9789 35.5182C47.2348 34.1314 47.9999 32.2919 47.9999 30.2738C47.9999 25.9561 44.5 22.4566 40.1826 22.4566C39.389 22.4559 38.5998 22.5761 37.8423 22.8131C37.8462 22.6947 37.8513 22.576 37.8513 22.4566C37.8513 20.6911 37.4162 19.0273 36.6471 17.5663" fill="rgb(190,234,252)" fill-rule="nonzero" />
		<path id="Vector" d="M8.38519 22.2882C8.2265 22.2784 8.06755 22.2735 7.90856 22.2734C3.54075 22.2733 0 25.8142 0 30.182C0 34.5496 3.54075 38.0908 7.90856 38.0908L16.6283 38.0908C16.6328 37.2767 16.8411 36.4766 17.2343 35.7637C12.9229 32.4456 9.74634 27.7271 8.38519 22.2882Z" fill="rgb(174,228,255)" fill-rule="nonzero" />
		<path id="Vector" d="M7.65132 16.3151C7.65132 13.7499 8.04582 11.2772 8.77623 8.95312C7.98854 9.09853 7.30941 9.55378 6.87001 10.1879C6.56319 10.1087 6.24759 10.0687 5.93073 10.0687C3.86823 10.0687 2.19629 11.7407 2.19629 13.8033C2.19629 15.8655 3.86832 17.5379 5.93073 17.5379L7.68179 17.5379C7.66164 17.1306 7.65148 16.7229 7.65132 16.3151Z" fill="rgb(131,212,237)" fill-rule="nonzero" />
		<path id="Vector" d="M41.7326 32.9056C41.3025 32.9056 40.885 32.9607 40.4872 33.0638C39.7743 32.0342 38.5853 31.3599 37.2383 31.3599C36.8007 31.3599 36.3806 31.432 35.9871 31.5633C35.3239 28.6285 32.7021 26.436 29.5668 26.436C25.9306 26.436 22.9829 29.3838 22.9829 33.0201C22.9829 33.0951 22.9862 33.1694 22.9884 33.2434C22.5141 33.095 22.0199 33.0197 21.5228 33.0201C18.8195 33.0201 16.6279 35.2113 16.6279 37.9154C16.6279 40.6187 18.8196 42.8101 21.5228 42.8101L41.7328 42.8101C44.4679 42.8101 46.6853 40.5928 46.6853 37.8578C46.6851 35.1227 44.4678 32.9056 41.7326 32.9056Z" fill="rgb(228,242,249)" fill-rule="nonzero" />
		<path id="Vector" d="M26.7429 31.6434C26.7429 29.8765 27.1179 28.1973 27.7915 26.6802C25.0179 27.4552 22.9826 29.9992 22.9826 33.0202C22.9826 33.0952 22.9859 33.1695 22.9882 33.2435C22.5138 33.0951 22.0196 33.0198 21.5226 33.0202C18.8193 33.0202 16.6277 35.2114 16.6277 37.9155C16.6277 40.6187 18.8194 42.8101 21.5226 42.8101L33.961 42.8101C29.7056 40.8927 26.7429 36.614 26.7429 31.6434Z" fill="rgb(215,237,249)" fill-rule="nonzero" />
	</g>
</svg>
