<svg viewBox="0 0 290 195" xmlns="http://www.w3.org/2000/svg" xmlns:xlink="http://www.w3.org/1999/xlink" width="290.000000" height="195.000000" fill="none" customFrame="#000000">
	<defs>
		<clipPath id="clipPath_0">
			<rect width="195.000000" height="58.000000" x="0.000000" y="0.000000" fill="rgb(255,255,255)" transform="matrix(-4.37114e-08,1,-1,-4.37114e-08,290,0)" />
		</clipPath>
		<clipPath id="clipPath_1">
			<rect width="195.000000" height="58.000000" x="0.000000" y="0.000000" fill="rgb(255,255,255)" transform="matrix(-4.37114e-08,1,-1,-4.37114e-08,232,0)" />
		</clipPath>
		<clipPath id="clipPath_2">
			<rect width="195.000000" height="58.000000" x="0.000000" y="0.000000" fill="rgb(255,255,255)" transform="matrix(-4.37114e-08,1,-1,-4.37114e-08,174,0)" />
		</clipPath>
		<clipPath id="clipPath_3">
			<rect width="195.000000" height="58.000000" x="0.000000" y="0.000000" fill="rgb(255,255,255)" transform="matrix(-4.37114e-08,1,-1,-4.37114e-08,116,0)" />
		</clipPath>
		<clipPath id="clipPath_4">
			<rect width="195.000000" height="58.000000" x="0.000000" y="0.000000" fill="rgb(255,255,255)" transform="matrix(-4.37114e-08,1,-1,-4.37114e-08,58,0)" />
		</clipPath>
	</defs>
	<rect id="Frame 2147224012" width="195.000000" height="290.000000" x="0.000000" y="0.000000" transform="matrix(-4.37114e-08,1,-1,-4.37114e-08,290,0)" />
	<g id="Frame 2147224012" customFrame="url(#clipPath_0)">
		<rect id="Frame 2147224012" width="195.000000" height="58.000000" x="0.000000" y="0.000000" transform="matrix(-4.37114e-08,1,-1,-4.37114e-08,290,0)" />
		<path id="+" d="M2.86094 29.96L20.1409 29.96L20.1409 33.32L2.86094 33.32L2.86094 29.96ZM13.1809 23L13.1809 40.28L9.82094 40.28L9.82094 23L13.1809 23Z" fill="rgb(6.75278,19.9986,49.3472)" fill-opacity="0.159999996" fill-rule="nonzero" transform="matrix(-4.37114e-08,1,-1,-4.37114e-08,290,0)" />
		<path id="+" d="M2.86094 29.96L20.1409 29.96L20.1409 33.32L2.86094 33.32L2.86094 29.96ZM13.1809 23L13.1809 40.28L9.82094 40.28L9.82094 23L13.1809 23Z" fill="rgb(6.75278,19.9986,49.3472)" fill-opacity="0.159999996" fill-rule="nonzero" transform="matrix(-4.37114e-08,1,-1,-4.37114e-08,290,43)" />
		<path id="+" d="M2.86094 29.96L20.1409 29.96L20.1409 33.32L2.86094 33.32L2.86094 29.96ZM13.1809 23L13.1809 40.28L9.82094 40.28L9.82094 23L13.1809 23Z" fill="rgb(6.75278,19.9986,49.3472)" fill-opacity="0.159999996" fill-rule="nonzero" transform="matrix(-4.37114e-08,1,-1,-4.37114e-08,290,86)" />
		<path id="+" d="M2.86094 29.96L20.1409 29.96L20.1409 33.32L2.86094 33.32L2.86094 29.96ZM13.1809 23L13.1809 40.28L9.82094 40.28L9.82094 23L13.1809 23Z" fill="rgb(6.75278,19.9986,49.3472)" fill-opacity="0.159999996" fill-rule="nonzero" transform="matrix(-4.37114e-08,1,-1,-4.37114e-08,290,129)" />
		<path id="+" d="M2.86094 29.96L20.1409 29.96L20.1409 33.32L2.86094 33.32L2.86094 29.96ZM13.1809 23L13.1809 40.28L9.82094 40.28L9.82094 23L13.1809 23Z" fill="rgb(6.75278,19.9986,49.3472)" fill-opacity="0.159999996" fill-rule="nonzero" transform="matrix(-4.37114e-08,1,-1,-4.37114e-08,290,172)" />
	</g>
	<g id="Frame 2147224013" customFrame="url(#clipPath_1)">
		<rect id="Frame 2147224013" width="195.000000" height="58.000000" x="0.000000" y="0.000000" transform="matrix(-4.37114e-08,1,-1,-4.37114e-08,232,0)" />
		<path id="+" d="M2.86094 29.96L20.1409 29.96L20.1409 33.32L2.86094 33.32L2.86094 29.96ZM13.1809 23L13.1809 40.28L9.82094 40.28L9.82094 23L13.1809 23Z" fill="rgb(6.75278,19.9986,49.3472)" fill-opacity="0.159999996" fill-rule="nonzero" transform="matrix(-4.37114e-08,1,-1,-4.37114e-08,232,0)" />
		<path id="+" d="M2.86094 29.96L20.1409 29.96L20.1409 33.32L2.86094 33.32L2.86094 29.96ZM13.1809 23L13.1809 40.28L9.82094 40.28L9.82094 23L13.1809 23Z" fill="rgb(6.75278,19.9986,49.3472)" fill-opacity="0.159999996" fill-rule="nonzero" transform="matrix(-4.37114e-08,1,-1,-4.37114e-08,232,43)" />
		<path id="+" d="M2.86094 29.96L20.1409 29.96L20.1409 33.32L2.86094 33.32L2.86094 29.96ZM13.1809 23L13.1809 40.28L9.82094 40.28L9.82094 23L13.1809 23Z" fill="rgb(6.75278,19.9986,49.3472)" fill-opacity="0.159999996" fill-rule="nonzero" transform="matrix(-4.37114e-08,1,-1,-4.37114e-08,232,86)" />
		<path id="+" d="M2.86094 29.96L20.1409 29.96L20.1409 33.32L2.86094 33.32L2.86094 29.96ZM13.1809 23L13.1809 40.28L9.82094 40.28L9.82094 23L13.1809 23Z" fill="rgb(6.75278,19.9986,49.3472)" fill-opacity="0.159999996" fill-rule="nonzero" transform="matrix(-4.37114e-08,1,-1,-4.37114e-08,232,129)" />
		<path id="+" d="M2.86094 29.96L20.1409 29.96L20.1409 33.32L2.86094 33.32L2.86094 29.96ZM13.1809 23L13.1809 40.28L9.82094 40.28L9.82094 23L13.1809 23Z" fill="rgb(6.75278,19.9986,49.3472)" fill-opacity="0.159999996" fill-rule="nonzero" transform="matrix(-4.37114e-08,1,-1,-4.37114e-08,232,172)" />
	</g>
	<g id="Frame 2147224014" customFrame="url(#clipPath_2)">
		<rect id="Frame 2147224014" width="195.000000" height="58.000000" x="0.000000" y="0.000000" transform="matrix(-4.37114e-08,1,-1,-4.37114e-08,174,0)" />
		<path id="+" d="M2.86094 29.96L20.1409 29.96L20.1409 33.32L2.86094 33.32L2.86094 29.96ZM13.1809 23L13.1809 40.28L9.82094 40.28L9.82094 23L13.1809 23Z" fill="rgb(6.75278,19.9986,49.3472)" fill-opacity="0.159999996" fill-rule="nonzero" transform="matrix(-4.37114e-08,1,-1,-4.37114e-08,174,0)" />
		<path id="+" d="M2.86094 29.96L20.1409 29.96L20.1409 33.32L2.86094 33.32L2.86094 29.96ZM13.1809 23L13.1809 40.28L9.82094 40.28L9.82094 23L13.1809 23Z" fill="rgb(6.75278,19.9986,49.3472)" fill-opacity="0.159999996" fill-rule="nonzero" transform="matrix(-4.37114e-08,1,-1,-4.37114e-08,174,43)" />
		<path id="+" d="M2.86094 29.96L20.1409 29.96L20.1409 33.32L2.86094 33.32L2.86094 29.96ZM13.1809 23L13.1809 40.28L9.82094 40.28L9.82094 23L13.1809 23Z" fill="rgb(6.75278,19.9986,49.3472)" fill-opacity="0.159999996" fill-rule="nonzero" transform="matrix(-4.37114e-08,1,-1,-4.37114e-08,174,86)" />
		<path id="+" d="M2.86094 29.96L20.1409 29.96L20.1409 33.32L2.86094 33.32L2.86094 29.96ZM13.1809 23L13.1809 40.28L9.82094 40.28L9.82094 23L13.1809 23Z" fill="rgb(6.75278,19.9986,49.3472)" fill-opacity="0.159999996" fill-rule="nonzero" transform="matrix(-4.37114e-08,1,-1,-4.37114e-08,174,129)" />
		<path id="+" d="M2.86094 29.96L20.1409 29.96L20.1409 33.32L2.86094 33.32L2.86094 29.96ZM13.1809 23L13.1809 40.28L9.82094 40.28L9.82094 23L13.1809 23Z" fill="rgb(6.75278,19.9986,49.3472)" fill-opacity="0.159999996" fill-rule="nonzero" transform="matrix(-4.37114e-08,1,-1,-4.37114e-08,174,172)" />
	</g>
	<g id="Frame 2147224015" customFrame="url(#clipPath_3)">
		<rect id="Frame 2147224015" width="195.000000" height="58.000000" x="0.000000" y="0.000000" transform="matrix(-4.37114e-08,1,-1,-4.37114e-08,116,0)" />
		<path id="+" d="M2.86094 29.96L20.1409 29.96L20.1409 33.32L2.86094 33.32L2.86094 29.96ZM13.1809 23L13.1809 40.28L9.82094 40.28L9.82094 23L13.1809 23Z" fill="rgb(6.75278,19.9986,49.3472)" fill-opacity="0.159999996" fill-rule="nonzero" transform="matrix(-4.37114e-08,1,-1,-4.37114e-08,116,0)" />
		<path id="+" d="M2.86094 29.96L20.1409 29.96L20.1409 33.32L2.86094 33.32L2.86094 29.96ZM13.1809 23L13.1809 40.28L9.82094 40.28L9.82094 23L13.1809 23Z" fill="rgb(6.75278,19.9986,49.3472)" fill-opacity="0.159999996" fill-rule="nonzero" transform="matrix(-4.37114e-08,1,-1,-4.37114e-08,116,43)" />
		<path id="+" d="M2.86094 29.96L20.1409 29.96L20.1409 33.32L2.86094 33.32L2.86094 29.96ZM13.1809 23L13.1809 40.28L9.82094 40.28L9.82094 23L13.1809 23Z" fill="rgb(6.75278,19.9986,49.3472)" fill-opacity="0.159999996" fill-rule="nonzero" transform="matrix(-4.37114e-08,1,-1,-4.37114e-08,116,86)" />
		<path id="+" d="M2.86094 29.96L20.1409 29.96L20.1409 33.32L2.86094 33.32L2.86094 29.96ZM13.1809 23L13.1809 40.28L9.82094 40.28L9.82094 23L13.1809 23Z" fill="rgb(6.75278,19.9986,49.3472)" fill-opacity="0.159999996" fill-rule="nonzero" transform="matrix(-4.37114e-08,1,-1,-4.37114e-08,116,129)" />
		<path id="+" d="M2.86094 29.96L20.1409 29.96L20.1409 33.32L2.86094 33.32L2.86094 29.96ZM13.1809 23L13.1809 40.28L9.82094 40.28L9.82094 23L13.1809 23Z" fill="rgb(6.75278,19.9986,49.3472)" fill-opacity="0.159999996" fill-rule="nonzero" transform="matrix(-4.37114e-08,1,-1,-4.37114e-08,116,172)" />
	</g>
	<g id="Frame 2147224016" customFrame="url(#clipPath_4)">
		<rect id="Frame 2147224016" width="195.000000" height="58.000000" x="0.000000" y="0.000000" transform="matrix(-4.37114e-08,1,-1,-4.37114e-08,58,0)" />
		<path id="+" d="M2.86094 29.96L20.1409 29.96L20.1409 33.32L2.86094 33.32L2.86094 29.96ZM13.1809 23L13.1809 40.28L9.82094 40.28L9.82094 23L13.1809 23Z" fill="rgb(6.75278,19.9986,49.3472)" fill-opacity="0.159999996" fill-rule="nonzero" transform="matrix(-4.37114e-08,1,-1,-4.37114e-08,58,0)" />
		<path id="+" d="M2.86094 29.96L20.1409 29.96L20.1409 33.32L2.86094 33.32L2.86094 29.96ZM13.1809 23L13.1809 40.28L9.82094 40.28L9.82094 23L13.1809 23Z" fill="rgb(6.75278,19.9986,49.3472)" fill-opacity="0.159999996" fill-rule="nonzero" transform="matrix(-4.37114e-08,1,-1,-4.37114e-08,58,43)" />
		<path id="+" d="M2.86094 29.96L20.1409 29.96L20.1409 33.32L2.86094 33.32L2.86094 29.96ZM13.1809 23L13.1809 40.28L9.82094 40.28L9.82094 23L13.1809 23Z" fill="rgb(6.75278,19.9986,49.3472)" fill-opacity="0.159999996" fill-rule="nonzero" transform="matrix(-4.37114e-08,1,-1,-4.37114e-08,58,86)" />
		<path id="+" d="M2.86094 29.96L20.1409 29.96L20.1409 33.32L2.86094 33.32L2.86094 29.96ZM13.1809 23L13.1809 40.28L9.82094 40.28L9.82094 23L13.1809 23Z" fill="rgb(6.75278,19.9986,49.3472)" fill-opacity="0.159999996" fill-rule="nonzero" transform="matrix(-4.37114e-08,1,-1,-4.37114e-08,58,129)" />
		<path id="+" d="M2.86094 29.96L20.1409 29.96L20.1409 33.32L2.86094 33.32L2.86094 29.96ZM13.1809 23L13.1809 40.28L9.82094 40.28L9.82094 23L13.1809 23Z" fill="rgb(6.75278,19.9986,49.3472)" fill-opacity="0.159999996" fill-rule="nonzero" transform="matrix(-4.37114e-08,1,-1,-4.37114e-08,58,172)" />
	</g>
</svg>
