<svg viewBox="0 0 28 28" xmlns="http://www.w3.org/2000/svg" xmlns:xlink="http://www.w3.org/1999/xlink" width="28.000000" height="28.000000" fill="none">
	<rect id="Frame" width="28.000000" height="28.000000" x="0.000000" y="0.000000" fill="rgb(255,255,255)" fill-opacity="0" />
	<g id="Group">
		<path id="Vector" d="M19.8901 7.7334C18.2935 8.06676 16.583 8.2641 14.8204 8.31102L14.8204 13.1792L20.5902 13.1792C20.537 11.2617 20.2978 9.41825 19.8901 7.7334ZM5.76828 13.1792C5.82237 11.1326 6.07845 9.15758 6.51731 7.34475C5.08012 6.94133 3.76518 6.41977 2.62481 5.79292C1.06292 7.94819 0.153963 10.4922 0 13.1792L5.76828 13.1792ZM5.76828 14.82L0 14.82C0.153963 17.5069 1.06292 20.0509 2.62476 22.2062C3.76512 21.5794 5.08012 21.0578 6.51731 20.6544C6.07845 18.8416 5.82232 16.8665 5.76828 14.82ZM16.3593 0.947708C15.8576 0.523339 15.3425 0.237454 14.8204 0.0908203L14.8204 6.67005C16.4314 6.6252 17.9899 6.44854 19.4428 6.15319C19.1762 5.33825 18.8663 4.57281 18.5147 3.86962C17.883 2.6063 17.1578 1.62318 16.3593 0.947708ZM6.95825 22.2315C5.75723 22.5688 4.65351 22.9941 3.68396 23.4993C3.81426 23.641 3.94737 23.78 4.08322 23.9164C5.66043 25.4936 7.54714 26.6487 9.60642 27.3253C9.02956 26.6435 8.49608 25.82 8.01773 24.8633C7.61294 24.0538 7.25891 23.1713 6.95825 22.2315ZM9.48533 3.86962C9.13375 4.57281 8.82381 5.33825 8.55717 6.15319C10.0101 6.44854 11.5686 6.6252 13.1796 6.67005L13.1796 0.0908203C12.6574 0.237509 12.1424 0.523339 11.6407 0.947708C10.8422 1.62318 10.117 2.6063 9.48533 3.86962ZM22.2317 14.82C22.1776 16.8665 21.9216 18.8416 21.4827 20.6544C22.9199 21.0578 24.2349 21.5794 25.3752 22.2062C26.9371 20.0509 27.846 17.507 28 14.82L22.2317 14.82ZM21.0417 5.7676C22.2428 5.4303 23.3465 5.005 24.316 4.4998C24.1857 4.35813 24.0526 4.21911 23.9167 4.08281C22.3396 2.50566 20.4528 1.35058 18.3935 0.673911C18.9704 1.35572 19.5039 2.17914 19.9822 3.13579C20.387 3.94537 20.7411 4.8279 21.0417 5.7676ZM18.5146 24.1296C18.8662 23.4264 19.1761 22.6609 19.4428 21.8459C17.9899 21.5506 16.4314 21.3739 14.8204 21.3291L14.8204 27.9083C15.3425 27.7617 15.8576 27.4758 16.3592 27.0514C17.1578 26.3759 17.883 25.3929 18.5146 24.1296ZM21.4827 7.3448C21.9216 9.15763 22.1776 11.1327 22.2317 13.1792L28 13.1792C27.846 10.4923 26.9371 7.94824 25.3752 5.79303C24.2349 6.41982 22.9199 6.94138 21.4827 7.3448ZM14.8204 14.82L14.8204 19.6881C16.583 19.735 18.2934 19.9324 19.8901 20.2657C20.2978 18.5808 20.537 16.7374 20.5902 14.82L14.8204 14.82ZM13.1796 13.1792L13.1796 8.31102C11.4169 8.2641 9.70651 8.06676 8.10989 7.7334C7.70215 9.4183 7.46292 11.2617 7.40975 13.1792L13.1796 13.1792ZM6.95825 5.7676C7.25885 4.82785 7.61294 3.94537 8.01773 3.13579C8.49608 2.17914 9.02956 1.35567 9.60642 0.673911C7.5472 1.35058 5.66043 2.50566 4.08322 4.08287C3.94736 4.21918 3.81424 4.3582 3.68396 4.49985C4.65351 5.005 5.75723 5.4303 6.95825 5.7676ZM21.0417 22.2315C20.7411 23.1713 20.3871 24.0538 19.9823 24.8633C19.5039 25.82 18.9704 26.6435 18.3936 27.3253C20.4528 26.6487 22.3396 25.4936 23.9168 23.9164C24.0527 23.7801 24.1858 23.641 24.316 23.4993C23.3465 22.9941 22.2428 22.5688 21.0417 22.2315ZM13.1796 14.82L7.40975 14.82C7.46292 16.7375 7.70215 18.5809 8.10989 20.2657C9.70646 19.9324 11.4169 19.735 13.1796 19.6881L13.1796 14.82ZM11.6407 27.0515C12.1424 27.4758 12.6575 27.7617 13.1796 27.9084L13.1796 21.3291C11.5686 21.374 10.0101 21.5506 8.55717 21.846C8.82381 22.6609 9.1337 23.4264 9.48533 24.1296C10.117 25.3929 10.8422 26.3759 11.6407 27.0515Z" fill="rgb(255,255,255)" fill-rule="nonzero" />
	</g>
</svg>
