<svg viewBox="0 0 48 48" xmlns="http://www.w3.org/2000/svg" xmlns:xlink="http://www.w3.org/1999/xlink" width="48.000000" height="48.000000" fill="none">
	<rect id="Frame" width="48.000000" height="48.000000" x="0.000000" y="0.000000" fill="rgb(255,255,255)" fill-opacity="0" />
	<g id="Group">
		<path id="Vector" d="M39.2115 32.095L37.9921 22.19L35.7073 22.4713L35.7082 22.4697L31.2785 19.9768C30.806 19.7109 30.2638 19.5952 29.7239 19.6451L22.7296 20.292C22.3058 20.3312 21.8976 20.4711 21.5389 20.7002C21.1803 20.9292 20.8816 21.2407 20.6678 21.6087L15.738 30.0938C15.374 30.7203 15.6598 31.5238 16.3377 31.7799L16.5393 31.856C16.9273 32.0025 17.326 32.0874 17.7245 32.1206L17.0998 32.6646L15.8502 33.7534L12.2958 36.7853C11.6631 37.3364 11.5974 38.2955 12.1486 38.9282L12.5091 39.3412C13.2169 40.1528 14.4489 40.2371 15.2621 39.5291L16.6205 41.0872C17.0622 41.5944 17.7092 41.8188 18.3309 41.7423C18.7174 41.6948 19.0807 41.5321 19.3734 41.2752L20.7303 42.8334C21.1736 43.3419 21.8205 43.5648 22.4422 43.4883C22.8286 43.4413 23.1919 43.279 23.4849 43.0227L24.2223 43.66C24.9303 44.4731 26.1637 44.5572 26.9768 43.8492L27.9793 42.9746L36.407 36.411L36.4161 36.4027L39.7412 36.3994L39.2115 32.095Z" fill="rgb(242,159,92)" fill-rule="nonzero" />
		<path id="Vector" d="M35.5997 33.8509L35.5906 33.8593L27.1629 40.4229L26.1604 41.2974C25.3473 42.0054 24.1138 41.9213 23.4058 41.1083L22.6684 40.4709C22.3755 40.7273 22.0121 40.8895 21.6257 40.9365C21.0041 41.013 20.3572 40.7902 19.9139 40.2817L18.5569 38.7235C18.2641 38.9802 17.9009 39.1429 17.5144 39.1905C16.8928 39.267 16.2457 39.0428 15.8041 38.5355L14.4456 36.9774C13.7494 37.5836 12.7471 37.6072 12.0287 37.0924C11.6602 37.648 11.6897 38.401 12.149 38.9282L12.5095 39.3412C13.2173 40.1529 14.4493 40.2371 15.2625 39.5291L16.6209 41.0873C17.0626 41.5944 17.7096 41.8188 18.3313 41.7423C18.7178 41.6948 19.081 41.532 19.3738 41.2752L20.7307 42.8335C21.174 43.342 21.8209 43.5649 22.4426 43.4884C22.829 43.4414 23.1923 43.2791 23.4853 43.0228L24.2227 43.6601C24.9307 44.4732 26.1641 44.5573 26.9772 43.8493L27.9797 42.9747L36.4074 36.4111L36.4165 36.4028L39.7416 36.3995L39.3738 33.4111L35.5997 33.8509Z" fill="rgb(211,125,66)" fill-rule="nonzero" />
		<path id="Vector" d="M37.1343 38.1354L32.6189 34.242L31.3632 33.1601L30.4647 32.3863L26.6015 29.0563L27.0477 25.2585C27.1986 23.974 26.39 22.7715 25.1435 22.4266L16.7225 20.0965C16.2902 19.9769 15.83 20.01 15.4193 20.1903C15.0087 20.3706 14.6728 20.687 14.4683 21.0862L13.4093 23.1533L8.86355 22.8448L7.69918 32.7564L7.19312 37.0637L11.6179 37.358L11.6271 37.3664L20.871 45.3344L21.8783 46.2035C22.6954 46.907 23.9283 46.816 24.6318 45.999L25.9799 44.4347C26.2743 44.6894 26.6385 44.8497 27.0252 44.8945C27.6472 44.9677 28.293 44.7412 28.7334 44.2302L30.0817 42.6645C30.3759 42.9197 30.7401 43.0804 31.1268 43.1258C31.7489 43.1989 32.3947 42.971 32.8335 42.4613L34.1833 40.8957C35.0003 41.5991 36.2318 41.508 36.9351 40.6924L37.2934 40.2774C37.8411 39.6417 37.77 38.683 37.1343 38.1354Z" fill="rgb(249,194,149)" fill-rule="nonzero" />
		<path id="Vector" d="M37.1344 38.1356L35.759 36.9497C36.206 37.5425 36.1968 38.3858 35.6923 38.9713L35.312 39.4119C34.5654 40.2776 33.2581 40.3744 32.3907 39.6276L30.9579 41.2896C30.492 41.8306 29.8064 42.0725 29.146 41.995C28.7355 41.9468 28.3489 41.7762 28.0366 41.5053L26.6052 43.1675C26.1377 43.7098 25.4523 43.9502 24.7919 43.8727C24.3814 43.8251 23.9948 43.655 23.6823 43.3845L22.2511 45.0452C21.9918 45.3466 21.6508 45.5665 21.2692 45.6782L21.8784 46.2039C22.6955 46.9074 23.9284 46.8164 24.6319 45.9994L25.98 44.4351C26.2744 44.6898 26.6386 44.8501 27.0253 44.8949C27.6474 44.968 28.2931 44.7416 28.7335 44.2306L30.0819 42.6649C30.376 42.9201 30.7402 43.0808 31.127 43.1261C31.749 43.1993 32.3949 42.9714 32.8337 42.4616L34.1834 40.896C35.0004 41.5995 36.2319 41.5084 36.9353 40.6928L37.2936 40.2777C37.8412 39.6419 37.7701 38.6832 37.1344 38.1356Z" fill="rgb(229,159,106)" fill-rule="nonzero" />
		<path id="Vector" d="M11.8484 37.3481L11.3128 38.0553C10.7296 38.8255 10.8811 39.9226 11.6513 40.5059C12.4214 41.0892 13.5186 40.9377 14.1019 40.1675L14.6375 39.4603C15.2207 38.6901 15.0692 37.5929 14.2991 37.0096C13.5289 36.4264 12.4317 36.5779 11.8484 37.3481Z" fill="rgb(242,159,92)" fill-rule="nonzero" />
		<path id="Vector" d="M15.1106 38.8354L14.1019 40.1673C13.5187 40.9374 13.6702 42.0346 14.4403 42.6179C15.2105 43.2011 16.3077 43.0496 16.891 42.2795L17.8996 40.9476C18.4828 40.1774 18.3313 39.0802 17.5612 38.4969C16.7909 37.9137 15.6938 38.0652 15.1106 38.8354Z" fill="rgb(242,159,92)" fill-rule="nonzero" />
		<path id="Vector" d="M18.2656 40.4643L16.891 42.2795C16.3078 43.0496 16.4593 44.1468 17.2294 44.7301C17.9996 45.3133 19.0967 45.1618 19.68 44.3916L21.0547 42.5765C21.6379 41.8063 21.4864 40.7092 20.7162 40.1258C19.9461 39.5426 18.8489 39.6941 18.2656 40.4643ZM21.1345 42.4712L19.68 44.3916C19.0968 45.1618 19.2483 46.2589 20.0185 46.8423C20.7886 47.4255 21.8858 47.274 22.4691 46.5038L23.9235 44.5834C24.5067 43.8132 24.3552 42.7161 23.5851 42.1327C22.8148 41.5495 21.7177 41.701 21.1345 42.4712ZM35.7083 22.4697L31.2786 19.9768C30.8061 19.7109 30.2639 19.5952 29.724 19.6451L22.7297 20.292C22.3059 20.3312 21.8977 20.4711 21.539 20.7002C21.1803 20.9292 20.8817 21.2407 20.6679 21.6087L15.7381 30.0938C15.3741 30.7204 15.6599 31.5238 16.3378 31.7799L16.5394 31.856C18.3464 32.5385 20.3872 31.9577 21.564 30.4261L23.4528 27.968C23.4528 27.968 27.993 33.2248 32.9917 27.0858" fill="rgb(242,159,92)" fill-rule="nonzero" />
		<path id="Vector" d="M44.9799 18.9893L47.2967 37.8097L41.8791 38.4766C40.8552 38.6026 39.923 37.8748 39.7969 36.8509L37.9365 21.7383C37.8105 20.7144 38.5383 19.7822 39.5623 19.6561L44.9799 18.9893Z" fill="rgb(92,156,238)" fill-rule="nonzero" />
		<path id="Vector" d="M41.7886 36.3525C40.735 36.4823 39.77 35.7871 39.5413 34.7729L39.797 36.8507C39.923 37.8747 40.8553 38.6024 41.8792 38.4764L47.2968 37.8095L47.0379 35.7063L41.7886 36.3525Z" fill="rgb(53,128,211)" fill-rule="nonzero" />
		<path id="Vector" d="M3.01997 18.9893L0.703125 37.8098L6.12075 38.4767C7.14469 38.6027 8.07684 37.8749 8.20294 36.851L10.0633 21.7384C10.1893 20.7144 9.46153 19.7823 8.43759 19.6562L3.01997 18.9893Z" fill="rgb(237,85,117)" fill-rule="nonzero" />
		<path id="Vector" d="M6.24825 36.3057L0.96825 35.6557L0.703125 37.8096L6.12075 38.4765C7.14469 38.6025 8.07684 37.8747 8.20294 36.8508L8.39944 35.2544C7.96697 35.9763 7.13728 36.4152 6.24825 36.3057Z" fill="rgb(204,58,96)" fill-rule="nonzero" />
		<path id="Vector" d="M43.5001 36.0695C44.2507 36.0695 44.8592 35.4609 44.8592 34.7103C44.8592 33.9596 44.2507 33.3511 43.5001 33.3511C42.7494 33.3511 42.1409 33.9596 42.1409 34.7103C42.1409 35.4609 42.7494 36.0695 43.5001 36.0695Z" fill="rgb(235,238,242)" fill-rule="evenodd" />
		<path id="Vector" d="M4.42413 36.0695C5.17479 36.0695 5.78332 35.4609 5.78332 34.7103C5.78332 33.9596 5.17479 33.3511 4.42413 33.3511C3.67347 33.3511 3.06494 33.9596 3.06494 34.7103C3.06494 35.4609 3.67347 36.0695 4.42413 36.0695Z" fill="rgb(235,238,242)" fill-rule="evenodd" />
		<path id="Vector" d="M24.0095 41.5723C23.4372 41.1388 22.7342 40.9956 22.0785 41.1178C21.9775 40.4989 21.6416 39.9428 21.1408 39.5654C20.6185 39.1699 19.9737 39.0015 19.3246 39.091C19.1657 39.113 19.0092 39.1503 18.8575 39.2024C18.7108 38.6975 18.405 38.2535 17.9856 37.9365C17.2683 37.3932 16.3462 37.3063 15.5688 37.626C15.4141 37.1602 15.1233 36.7518 14.7236 36.449C14.2014 36.0535 13.5562 35.8852 12.9075 35.9746C12.3813 36.0473 11.9037 36.2826 11.5309 36.6474L8.95733 36.4763L10.5348 23.6623L13.3613 23.8544C13.4985 23.8637 13.6354 23.8326 13.7551 23.7648C13.8747 23.6971 13.9719 23.5958 14.0346 23.4735L15.0939 21.4066C15.3623 20.8834 15.9682 20.6174 16.5347 20.7742L18.1079 21.2092C18.2876 21.2588 18.4797 21.235 18.6419 21.1431C18.8041 21.0512 18.9232 20.8986 18.973 20.7189C18.9976 20.6299 19.0044 20.537 18.9931 20.4453C18.9818 20.3537 18.9525 20.2651 18.907 20.1848C18.8615 20.1045 18.8006 20.0339 18.7278 19.9771C18.655 19.9203 18.5717 19.8784 18.4827 19.8538L16.9098 19.4189C15.7042 19.0852 14.4142 19.651 13.8428 20.7649L12.9947 22.4198L10.707 22.2644L10.7612 21.8241C10.9344 20.4171 9.93064 19.1315 8.52355 18.9582L3.10595 18.2917C2.92174 18.2706 2.73667 18.3232 2.59103 18.4379C2.44539 18.5527 2.35096 18.7203 2.3283 18.9043C2.30565 19.0883 2.35659 19.2739 2.47005 19.4205C2.58351 19.5671 2.75029 19.663 2.93411 19.6873L8.35171 20.3542C8.50364 20.3725 8.65044 20.4207 8.78361 20.4961C8.91677 20.5715 9.03366 20.6726 9.12749 20.7935C9.22199 20.9138 9.29168 21.0517 9.33252 21.1992C9.37336 21.3467 9.38455 21.5008 9.36543 21.6527L7.50506 36.7651C7.42659 37.4025 6.84403 37.8569 6.20663 37.7789L0.789023 37.112C0.604811 37.0909 0.419743 37.1435 0.274102 37.2583C0.12846 37.373 0.034034 37.5406 0.011376 37.7246C-0.011282 37.9087 0.0396621 38.0942 0.15312 38.2408C0.266578 38.3875 0.433366 38.4834 0.61718 38.5076L6.03478 39.1746C6.14091 39.1876 6.24638 39.194 6.35072 39.194C7.3004 39.194 8.15718 38.6664 8.60109 37.8621L10.5264 37.99C10.2947 38.4381 10.2079 38.9472 10.278 39.4467C10.3676 40.0956 10.7045 40.6708 11.2267 41.0663C11.6573 41.3924 12.1713 41.5641 12.7023 41.5641C12.8152 41.5641 12.9289 41.5563 13.0429 41.5406C13.0502 41.5396 13.0573 41.5382 13.0645 41.5371C13.0654 41.5444 13.066 41.5516 13.0669 41.5589C13.1566 42.2077 13.4935 42.783 14.0157 43.1784C14.4407 43.501 14.9598 43.6754 15.4934 43.6748C15.6143 43.6748 15.735 43.665 15.8544 43.6474C15.9354 44.2781 16.2589 44.8773 16.8047 45.2906C17.2298 45.6132 17.7488 45.7876 18.2824 45.787C18.403 45.787 18.5233 45.7773 18.6423 45.7597C18.6434 45.7675 18.6439 45.7754 18.645 45.7832C18.7346 46.432 19.0715 47.0073 19.5938 47.4027C20.0244 47.7288 20.5383 47.9005 21.0692 47.9005C21.1832 47.9005 21.297 47.8926 21.4098 47.8771C22.0588 47.7874 22.6339 47.4505 23.0293 46.9283L24.4838 45.0079C25.3003 43.9299 25.0875 42.3887 24.0095 41.5723ZM12.8506 40.1477C12.7145 40.1669 12.5759 40.1588 12.443 40.1241C12.31 40.0894 12.1852 40.0286 12.0759 39.9453C11.9661 39.8626 11.8738 39.759 11.8044 39.6404C11.7349 39.5218 11.6896 39.3906 11.6712 39.2544C11.652 39.1183 11.66 38.9798 11.6948 38.8468C11.7295 38.7138 11.7903 38.589 11.8736 38.4797L12.4092 37.7725C12.4919 37.6627 12.5955 37.5704 12.7141 37.5009C12.8327 37.4314 12.9638 37.3862 13.1 37.3677C13.2361 37.3486 13.3747 37.3567 13.5077 37.3914C13.6406 37.4262 13.7654 37.4869 13.8748 37.5701C13.9846 37.6528 14.0769 37.7564 14.1463 37.875C14.2158 37.9936 14.2611 38.1248 14.2795 38.261C14.2987 38.3971 14.2907 38.5356 14.2559 38.6686C14.2212 38.8015 14.1604 38.9263 14.0772 39.0356L13.5415 39.7429C13.4588 39.8527 13.3552 39.945 13.2366 40.0145C13.118 40.084 12.9868 40.1292 12.8506 40.1477ZM14.8649 42.0575C14.7551 41.9748 14.6628 41.8712 14.5933 41.7526C14.5239 41.634 14.4786 41.5028 14.4602 41.3666C14.441 41.2305 14.449 41.092 14.4837 40.959C14.5185 40.826 14.5793 40.7012 14.6626 40.5919L15.1982 39.8847L15.1982 39.8845L15.6712 39.26C15.7689 39.131 15.8952 39.0265 16.0401 38.9546C16.185 38.8828 16.3447 38.8456 16.5064 38.8459C16.734 38.8456 16.9554 38.92 17.1367 39.0577C17.5966 39.4059 17.6874 40.0633 17.3391 40.5233L16.3305 41.8552C15.9822 42.315 15.3247 42.4057 14.8649 42.0575ZM17.6539 44.1696C17.5441 44.087 17.4518 43.9833 17.3824 43.8647C17.3129 43.7461 17.2676 43.6149 17.2492 43.4787C17.23 43.3427 17.238 43.2042 17.2727 43.0713C17.3074 42.9384 17.3681 42.8136 17.4513 42.7043L17.4515 42.7041L18.4602 41.3721L18.8262 40.8888C18.9089 40.779 19.0125 40.6867 19.1311 40.6172C19.2497 40.5477 19.3809 40.5025 19.5171 40.4841C19.6532 40.4649 19.7918 40.473 19.9247 40.5077C20.0577 40.5424 20.1825 40.6032 20.2919 40.6865C20.7515 41.0346 20.8424 41.6917 20.4945 42.1515L19.1195 43.9671L19.1193 43.9674C18.771 44.4271 18.1139 44.5179 17.6539 44.1696ZM23.3629 44.159L21.9085 46.0794C21.8258 46.1892 21.7222 46.2815 21.6036 46.351C21.485 46.4204 21.3538 46.4657 21.2176 46.4841C20.9406 46.5223 20.6656 46.4505 20.4429 46.2818C20.2201 46.1132 20.0764 45.8677 20.0382 45.591C20.019 45.4549 20.027 45.3163 20.0618 45.1833C20.0965 45.0503 20.1573 44.9256 20.2406 44.8162L21.6153 43.0011L21.6161 43.0001L21.6951 42.8958C21.7778 42.786 21.8814 42.6937 22 42.6242C22.1186 42.5547 22.2498 42.5095 22.386 42.4911C22.5221 42.472 22.6607 42.48 22.7937 42.5147C22.9266 42.5495 23.0514 42.6102 23.1608 42.6935C23.6203 43.0416 23.7112 43.6991 23.3629 44.159Z" fill="rgb(0,0,0)" fill-rule="nonzero" />
		<path id="Vector" d="M47.9946 37.7239C47.9718 37.5389 47.8764 37.3704 47.7295 37.2557C47.5825 37.141 47.396 37.0893 47.2109 37.112L41.7934 37.779C41.155 37.8574 40.5734 37.4026 40.495 36.7652L40.4395 36.3141L40.4266 36.2097L38.6347 21.6527C38.6156 21.5009 38.6268 21.3468 38.6676 21.1993C38.7084 21.0518 38.7781 20.9139 38.8726 20.7935C38.9665 20.6726 39.0833 20.5716 39.2165 20.4962C39.3497 20.4208 39.4965 20.3725 39.6484 20.3543L45.066 19.6873C45.1583 19.6768 45.2475 19.6481 45.3286 19.6029C45.4097 19.5577 45.4811 19.4968 45.5385 19.4239C45.596 19.351 45.6384 19.2674 45.6634 19.1779C45.6884 19.0885 45.6954 18.995 45.6841 18.9028C45.6727 18.8107 45.6432 18.7217 45.5973 18.641C45.5514 18.5603 45.4899 18.4895 45.4165 18.4327C45.343 18.3758 45.2591 18.3341 45.1694 18.3099C45.0798 18.2857 44.9862 18.2795 44.8942 18.2917L39.4766 18.9586C38.1525 19.1217 37.186 20.2696 37.2207 21.577L35.8545 21.7452L31.624 19.3644C31.0275 19.0275 30.3421 18.8811 29.66 18.9449L29.6558 18.9455L28.3824 19.0633C28.2905 19.0718 28.2011 19.0983 28.1194 19.1413C28.0377 19.1844 27.9653 19.2431 27.9063 19.3141C27.8473 19.3851 27.8029 19.4671 27.7755 19.5553C27.7482 19.6435 27.7386 19.7362 27.7471 19.8282C27.7828 20.2148 28.1247 20.4987 28.512 20.4635L29.7889 20.3454C30.1866 20.3081 30.5862 20.3933 30.934 20.5897L35.3203 23.0581C35.4598 23.1503 35.6275 23.1897 35.7935 23.1694L37.3803 22.9741L38.5442 32.4281L38.9467 35.6975L36.4157 35.6996C36.247 35.6997 36.084 35.7605 35.9566 35.8707L35.7608 36.0231L29.4066 30.5466C30.8587 30.1292 32.2429 29.1194 33.5371 27.5301C33.652 27.3852 33.7052 27.2008 33.6852 27.017C33.6652 26.8332 33.5736 26.6646 33.4302 26.5478C33.2868 26.4311 33.1032 26.3755 32.9191 26.3931C32.735 26.4108 32.5653 26.5002 32.4466 26.6421C31.0001 28.4186 29.4791 29.3331 27.9258 29.3599C25.663 29.4024 24.0004 27.5261 23.9851 27.5086C23.9167 27.4298 23.8317 27.3671 23.7362 27.325C23.6407 27.2829 23.5371 27.2626 23.4328 27.2653C23.3285 27.2683 23.2261 27.2945 23.1331 27.3419C23.0402 27.3894 22.959 27.457 22.8953 27.5397L21.0066 29.9978C20.0114 31.2931 18.3161 31.7757 16.7879 31.1984L16.5863 31.1222C16.4092 31.0552 16.337 30.9169 16.3098 30.8403C16.2826 30.7637 16.2511 30.6108 16.3462 30.4471L21.2759 21.9621C21.4336 21.6913 21.6537 21.462 21.9178 21.2933C22.1819 21.1246 22.4825 21.0214 22.7946 20.9922L25.7133 20.7223C25.8056 20.7143 25.8953 20.6881 25.9775 20.6452C26.0596 20.6023 26.1324 20.5436 26.1918 20.4725C26.2512 20.4014 26.2959 20.3193 26.3235 20.2308C26.351 20.1424 26.3608 20.0494 26.3522 19.9571C26.3437 19.8649 26.317 19.7752 26.2737 19.6933C26.2304 19.6114 26.1714 19.5389 26.1 19.4799C26.0285 19.4208 25.9462 19.3765 25.8576 19.3495C25.769 19.3224 25.6759 19.3131 25.5837 19.3221L22.665 19.592C22.1297 19.642 21.6141 19.8191 21.161 20.1084C20.7079 20.3978 20.3304 20.7911 20.0599 21.2557L15.1302 29.7407C14.9931 29.9762 14.9091 30.2387 14.8839 30.5101C14.8588 30.7814 14.8932 31.0549 14.9847 31.3116C15.0758 31.5683 15.2219 31.8021 15.4126 31.9967C15.6034 32.1912 15.8343 32.3417 16.0893 32.4378L16.291 32.514C16.8699 32.7336 17.484 32.8465 18.1032 32.8471C19.6457 32.847 21.1335 32.1407 22.1216 30.8547L23.5308 29.0208C24.2859 29.6716 25.6947 30.6355 27.493 30.7539L36.6753 38.6679C36.8404 38.8101 36.9403 39.0081 36.9564 39.2254C36.9725 39.4427 36.9031 39.6534 36.7611 39.8183L36.4033 40.2333C35.9537 40.754 35.1635 40.8119 34.6419 40.3625C34.6131 40.338 34.5823 40.3159 34.5499 40.2963L32.1662 38.241C32.0246 38.1223 31.8419 38.0642 31.6578 38.0791C31.4736 38.0941 31.3027 38.1809 31.1821 38.3209C31.0614 38.4608 31.0007 38.6426 31.013 38.827C31.0254 39.0113 31.1098 39.1834 31.248 39.306L33.185 40.9763L32.3014 42.0017C32.1681 42.1567 31.9987 42.2765 31.8082 42.3507C31.6178 42.4249 31.412 42.4512 31.209 42.4273C30.9617 42.398 30.7288 42.2951 30.5407 42.1319C30.5373 42.129 30.5337 42.1266 30.5303 42.1238L28.3155 40.2141C28.1738 40.0955 27.9912 40.0373 27.807 40.0523C27.6229 40.0672 27.452 40.1541 27.3313 40.294C27.2107 40.4339 27.1499 40.6157 27.1623 40.8001C27.1746 40.9845 27.259 41.1566 27.3972 41.2792L29.0897 42.7386L28.2009 43.7709C28.0674 43.9259 27.8978 44.0457 27.7071 44.1199C27.5165 44.1941 27.3105 44.2204 27.1073 44.1964C27.0156 44.1856 26.9227 44.193 26.8338 44.2181C26.745 44.2432 26.6619 44.2856 26.5894 44.3428C26.517 44.4 26.4565 44.471 26.4114 44.5516C26.3664 44.6322 26.3377 44.7209 26.327 44.8126C26.3052 44.9978 26.3579 45.1841 26.4734 45.3304C26.589 45.4768 26.758 45.5712 26.9432 45.593C27.3748 45.644 27.8124 45.5882 28.2174 45.4305C28.6225 45.2729 28.9827 45.0182 29.2663 44.6888L30.2165 43.5853C30.4776 43.7097 30.7574 43.7903 31.0447 43.8239C31.4762 43.8749 31.9136 43.8192 32.3184 43.6615C32.7233 43.5039 33.0832 43.2492 33.3666 42.9199L34.3185 41.8153C35.3711 42.3146 36.6712 42.075 37.4681 41.1519L37.8264 40.7363C38.0175 40.5156 38.163 40.2593 38.2544 39.982C38.3458 39.7048 38.3813 39.4121 38.3589 39.1211C38.3381 38.83 38.2597 38.5459 38.1283 38.2852C37.9969 38.0246 37.8151 37.7926 37.5935 37.6027L37.0164 37.1054L39.1258 37.1036C39.3564 38.3186 40.4256 39.1941 41.6491 39.1941C41.7534 39.1941 41.859 39.1877 41.965 39.1747L47.3826 38.5078C47.5677 38.485 47.7362 38.3896 47.851 38.2426C47.9657 38.0956 48.0174 37.909 47.9946 37.7239Z" fill="rgb(0,0,0)" fill-rule="nonzero" />
		<path id="Vector" d="M43.5001 32.6479C42.3629 32.6479 41.4377 33.5731 41.4377 34.7103C41.4377 35.8474 42.3629 36.7727 43.5001 36.7727C44.6373 36.7727 45.5624 35.8474 45.5624 34.7103C45.5624 33.5731 44.6373 32.6479 43.5001 32.6479ZM43.5001 35.3664C43.1383 35.3664 42.8439 35.072 42.8439 34.7103C42.8439 34.3485 43.1383 34.0542 43.5001 34.0542C43.8619 34.0542 44.1562 34.3485 44.1562 34.7103C44.1562 35.072 43.8619 35.3664 43.5001 35.3664ZM6.48643 34.7103C6.48643 33.5731 5.5613 32.6479 4.42412 32.6479C3.28694 32.6479 2.36182 33.5731 2.36182 34.7103C2.36182 35.8474 3.28694 36.7727 4.42412 36.7727C5.5613 36.7727 6.48643 35.8474 6.48643 34.7103ZM3.76806 34.7103C3.76806 34.3485 4.06234 34.0542 4.42412 34.0542C4.7859 34.0542 5.08018 34.3485 5.08018 34.7103C5.08018 35.072 4.7859 35.3664 4.42412 35.3664C4.06234 35.3664 3.76806 35.072 3.76806 34.7103Z" fill="rgb(0,0,0)" fill-rule="nonzero" />
	</g>
</svg>
