<svg viewBox="0 0 48 48" xmlns="http://www.w3.org/2000/svg" xmlns:xlink="http://www.w3.org/1999/xlink" width="48.000000" height="48.000000" fill="none">
	<rect id="Frame" width="48.000000" height="48.000000" x="0.000000" y="0.000000" fill="rgb(255,255,255)" fill-opacity="0" />
	<g id="Group">
		<path id="Vector" d="M13.1775 16.44L5.55 16.44L6.4125 12.6975C6.59149 11.9113 7.03296 11.2095 7.66418 10.7078C8.29539 10.2061 9.07869 9.93443 9.885 9.9375L12.915 9.9375C12.6825 10.8375 12.5625 11.7825 12.5625 12.75C12.5625 14.04 12.78 15.2775 13.1775 16.44ZM2.4375 30.5625L2.4375 33C2.4381 33.5468 2.65559 34.0711 3.04225 34.4578C3.42892 34.8444 3.95317 35.0619 4.5 35.0625L43.5 35.0625C44.0468 35.0619 44.5711 34.8444 44.9578 34.4578C45.3444 34.0711 45.5619 33.5468 45.5625 33L45.5625 30.5625L2.4375 30.5625ZM32.79 20.0625C31.8011 21.2552 30.5785 22.2327 29.1975 22.935L33.12 22.935L32.79 20.0625ZM13.6185 24.0623L3.7935 24.0623L2.5515 29.4375L12.9975 29.4375L13.6178 24.0623L13.6185 24.0623ZM13.6275 17.565L5.295 17.565L4.05 22.935L13.7475 22.935L14.235 18.705C14.01 18.3375 13.8075 17.955 13.6275 17.565ZM42.705 17.565L34.3725 17.565C34.1925 17.955 33.99 18.3375 33.765 18.705L34.2525 22.935L43.95 22.935L42.705 17.565ZM34.3815 24.063L35.0017 29.4375L45.4478 29.4375L44.2073 24.0623L34.3815 24.063ZM42.45 16.44L41.5875 12.6975C41.4085 11.9113 40.967 11.2095 40.3358 10.7078C39.7046 10.2061 38.9213 9.93443 38.115 9.9375L35.085 9.9375C35.3175 10.8375 35.4375 11.7825 35.4375 12.75C35.4375 14.04 35.22 15.2775 34.8225 16.44L42.45 16.44ZM15.21 20.0625L14.88 22.935L18.8025 22.935C17.415 22.23 16.1925 21.2475 15.21 20.0625ZM14.7518 24.0623L14.1315 29.4375L23.4375 29.4375L23.4375 24.0623L14.7518 24.0623ZM24.5625 24.0623L24.5625 29.4375L33.8685 29.4375L33.249 24.0623L24.5625 24.0623ZM24 23.0625C24.576 23.0625 25.137 23.0032 25.6875 22.9125L25.6875 17.4893C25.6875 17.2718 25.8128 17.0745 26.0085 16.9815C26.808 16.5997 27.4835 16.0001 27.9574 15.2516C28.4313 14.503 28.6844 13.6359 28.6875 12.75C28.6918 12.0215 28.5242 11.3024 28.1984 10.6508C27.8726 9.99924 27.3978 9.43367 26.8125 9L26.8125 12C26.8125 12.0926 26.7896 12.1838 26.7459 12.2654C26.7022 12.347 26.639 12.4166 26.562 12.468L24.312 13.968C24.2196 14.0296 24.111 14.0625 24 14.0625C23.889 14.0625 23.7804 14.0296 23.688 13.968L21.438 12.468C21.361 12.4166 21.2978 12.347 21.2541 12.2654C21.2104 12.1838 21.1875 12.0926 21.1875 12L21.1875 9C20.6022 9.43367 20.1274 9.99924 19.8016 10.6508C19.4758 11.3024 19.3082 12.0215 19.3125 12.75C19.3156 13.6359 19.5687 14.503 20.0426 15.2516C20.5165 16.0001 21.192 16.5997 21.9915 16.9815C22.0875 17.0271 22.1686 17.0991 22.2255 17.1889C22.2823 17.2788 22.3124 17.3829 22.3125 17.4893L22.3125 22.9118C22.863 23.0033 23.424 23.0625 24 23.0625ZM24 2.4375C18.3143 2.4375 13.6875 7.0635 13.6875 12.75C13.6875 17.46 16.866 21.4342 21.1875 22.6628L21.1875 17.8328C20.2812 17.3282 19.5255 16.5915 18.9983 15.6982C18.471 14.8049 18.1912 13.7873 18.1875 12.75C18.181 11.6489 18.4906 10.5691 19.0795 9.63881C19.6685 8.70848 20.512 7.96669 21.51 7.5015C21.5957 7.46064 21.6903 7.44218 21.7851 7.44786C21.8798 7.45354 21.9716 7.48317 22.0518 7.53398C22.132 7.58479 22.1979 7.65511 22.2435 7.73836C22.2891 7.82161 22.3129 7.91508 22.3125 8.01L22.3125 11.7L24 12.825L25.6875 11.7L25.6875 8.01C25.6873 7.91515 25.7112 7.82181 25.7568 7.73867C25.8025 7.65553 25.8685 7.5853 25.9486 7.53453C26.0287 7.48377 26.1204 7.45411 26.215 7.44834C26.3097 7.44256 26.4043 7.46085 26.49 7.5015C27.488 7.96669 28.3315 8.70848 28.9205 9.63881C29.5094 10.5691 29.819 11.6489 29.8125 12.75C29.8087 13.7872 29.5288 14.8046 29.0015 15.6977C28.4743 16.5909 27.7187 17.3275 26.8125 17.832L26.8125 22.662C31.134 21.4342 34.3125 17.46 34.3125 12.75C34.3125 7.0635 29.6865 2.4375 24 2.4375ZM20.4375 40.3125L27.5625 40.3125L27.5625 36.1875L20.4375 36.1875L20.4375 40.3125ZM30 41.4375L18 41.4375C17.4532 41.4381 16.9289 41.6556 16.5422 42.0422C16.1556 42.4289 15.9381 42.9532 15.9375 43.5L15.9375 45C15.9375 45.3105 16.1895 45.5625 16.5 45.5625L31.5 45.5625C31.6492 45.5625 31.7923 45.5032 31.8977 45.3977C32.0032 45.2923 32.0625 45.1492 32.0625 45L32.0625 43.5C32.0619 42.9532 31.8444 42.4289 31.4578 42.0422C31.0711 41.6556 30.5468 41.4381 30 41.4375Z" fill="rgb(202,68,255)" fill-rule="nonzero" />
	</g>
</svg>
