<svg viewBox="0 0 48 48" xmlns="http://www.w3.org/2000/svg" xmlns:xlink="http://www.w3.org/1999/xlink" width="48.000000" height="48.000000" fill="none">
	<rect id="Frame" width="48.000000" height="48.000000" x="0.000000" y="0.000000" fill="rgb(255,255,255)" fill-opacity="0" />
	<g id="Group">
		<path id="Vector" d="M13.1558 12.5666C13.1558 12.5666 12.8376 15.7486 8.65571 20.8853C8.65571 20.8853 5.51905 23.6581 5.15552 28.1135C5.15552 28.1135 7.10135 26.5465 9.15561 26.1891C9.15561 26.1891 5.49166 32.6765 7.87429 38.996C7.87429 38.996 8.52949 37.0304 9.89961 36.0171C9.89961 36.0171 8.46992 41.1522 13.5331 43.9394C13.4968 43.2251 13.7308 42.5234 14.1884 41.9738C14.1884 41.9738 16.0349 39.472 16.0349 36.1959C16.0349 36.1959 17.2678 38.1018 17.247 39.7698C17.247 39.7698 19.4302 37.4467 19.0133 32.8602C19.0133 32.8602 20.7407 39.1091 26.5186 42.2121C26.5186 42.2121 27.3526 39.6507 26.5186 35.958C26.5186 35.958 28.1269 42.0338 38.3128 41.0211C38.3128 41.0211 41.172 40.7828 43.0782 41.3786C43.0782 41.3786 42.3633 34.588 36.4066 30.1205C36.4066 30.1205 38.3724 29.4057 40.0402 29.7035C40.0402 29.7035 39.0276 23.2703 31.9988 20.0538C33.0082 19.9758 33.9973 19.7285 34.9247 19.3222C35.8892 18.9002 36.9244 18.6633 37.9764 18.6238C38.5283 18.6037 39.0807 18.6436 39.624 18.7428C39.624 18.7428 39.1474 16.4197 37.1223 15.764C37.1223 15.764 39.0281 16.4192 41.3515 15.4065C41.3515 15.4065 43.4362 14.3939 45.0445 14.3939C45.0445 14.3939 43.7341 9.44985 36.8244 10.0456C36.8244 10.0456 38.8497 9.27126 39.8622 7.36524C39.8622 7.36524 37.3604 5.33992 30.0338 7.12693C27.9375 7.63813 26.3289 7.87644 25.1004 7.95592C25.1004 7.95592 26.3911 7.08317 26.9357 5.87597C26.9357 5.87597 24.6158 5.48209 21.0267 7.58322C19.7861 8.30834 18.478 8.91112 17.1208 9.38307C15.6171 9.90769 13.7268 10.8822 13.1558 12.5666Z" fill="rgb(242,146,81)" fill-rule="nonzero" />
		<g id="Group">
			<path id="Vector" d="M18.1635 15.6197C20.3695 14.8913 23.1991 14.5168 24.5914 14.3656C24.8553 14.3367 25.1079 14.243 25.3269 14.0928C25.5458 13.9427 25.7243 13.7408 25.8464 13.5051L25.9955 13.2175C22.9515 13.047 20.6411 13.2571 19.0601 13.5221C18.3975 13.6345 17.7167 13.5602 17.0939 13.3075C16.4712 13.0548 15.9311 12.6337 15.5342 12.0914C13.713 9.59678 11.8126 6.88196 9.96788 4.06055C9.66613 4.86333 9.42799 5.68861 9.25564 6.52874C9.25564 6.52874 11.5225 9.97471 14.6627 14.2347C14.9738 14.6567 15.1892 15.1414 15.2937 15.6552C15.3983 16.1689 15.3896 16.6993 15.2682 17.2093C14.8462 18.9823 14.3165 21.4814 14.1106 23.6046L14.8941 23.3585C15.1811 23.2687 15.4372 23.1004 15.6335 22.8725C15.8297 22.6447 15.9583 22.3664 16.0046 22.0693C16.1836 20.9155 16.5419 18.9698 17.1042 17.4678C19.9917 21.1977 23.2454 25.0447 26.0712 27.5112L26.1168 26.5795C26.1487 25.9285 25.9316 25.2898 25.5097 24.793C24.2942 23.3608 21.5082 20.019 18.1635 15.6197ZM3.63216 11.9887C3.63216 11.9887 0.998799 14.8977 2.62162 16.9799C4.24445 19.0621 4.70383 19.9277 4.70383 19.9277C4.70383 19.9277 7.64341 14.9283 3.63216 11.9887ZM40.363 21.6201C40.363 21.6201 40.0013 23.9972 44.0328 25.1861C44.0328 25.1861 45.3247 25.4966 45.8931 25.9094C45.8923 25.9092 46.461 21.0259 40.363 21.6201Z" fill="rgb(204,71,41)" fill-rule="nonzero" />
		</g>
		<path id="Vector" d="M38.3128 41.0211C38.3128 41.0211 41.172 40.7828 43.0782 41.3785C43.0782 41.3785 42.6613 37.4225 39.8156 33.563C19.4382 35.375 12.2352 25.047 9.83396 19.353C9.45564 19.8748 9.06274 20.3859 8.65571 20.8856C8.65571 20.8856 5.51905 23.6585 5.15552 28.1139C5.15552 28.1139 7.10135 26.5468 9.15561 26.1895C9.15561 26.1895 5.49166 32.6768 7.87429 38.9963C7.87429 38.9963 8.52949 37.0307 9.89961 36.0175C9.89961 36.0175 8.46992 41.1525 13.5331 43.9398C13.4968 43.2255 13.7308 42.5238 14.1884 41.9742C14.1884 41.9742 16.0349 39.4724 16.0349 36.1962C16.0349 36.1962 17.2678 38.1021 17.247 39.7701C17.247 39.7701 19.4302 37.4471 19.0133 32.8605C19.0133 32.8605 20.7407 39.1094 26.5186 42.2125C26.5186 42.2125 27.3526 39.651 26.5186 35.9583C26.5186 35.9578 28.1269 42.0337 38.3128 41.0211Z" fill="rgb(234,118,73)" fill-rule="nonzero" />
	</g>
</svg>
