<svg viewBox="0 0 24 24" xmlns="http://www.w3.org/2000/svg" xmlns:xlink="http://www.w3.org/1999/xlink" width="24.000000" height="24.000000" fill="none">
	<rect id="Frame" width="24.000000" height="24.000000" x="0.000000" y="0.000000" fill="rgb(255,255,255)" fill-opacity="0" />
	<g id="Group">
		<path id="Vector" d="M21.6 21.5994L21.6 14.5674C21.6 11.1114 20.856 8.47141 16.824 8.47141C14.88 8.47141 13.584 9.52741 13.056 10.5354L13.008 10.5354L13.008 8.78341L9.19202 8.78341L9.19202 21.5994L13.176 21.5994L13.176 15.2394C13.176 13.5594 13.488 11.9514 15.552 11.9514C17.592 11.9514 17.616 13.8474 17.616 15.3354L17.616 21.5754L21.6 21.5754L21.6 21.5994ZM2.71202 8.78341L6.69602 8.78341L6.69602 21.5994L2.71202 21.5994L2.71202 8.78341ZM4.70402 2.39941C3.43202 2.39941 2.40002 3.43141 2.40002 4.70341C2.40002 5.97541 3.43202 7.03141 4.70402 7.03141C5.97602 7.03141 7.00802 5.97541 7.00802 4.70341C7.00802 3.43141 5.97602 2.39941 4.70402 2.39941Z" fill="rgb(255,255,255)" fill-rule="nonzero" />
	</g>
</svg>
