<svg viewBox="0 0 48 48" xmlns="http://www.w3.org/2000/svg" xmlns:xlink="http://www.w3.org/1999/xlink" width="48.000000" height="48.000000" fill="none">
	<defs>
		<linearGradient id="paint_linear_0" x1="24.0000496" x2="24.0000496" y1="18.7040863" y2="26.7004929" gradientUnits="userSpaceOnUse">
			<stop stop-color="rgb(254,240,174)" offset="0" stop-opacity="1" />
			<stop stop-color="rgb(250,198,0)" offset="1" stop-opacity="1" />
		</linearGradient>
		<linearGradient id="paint_linear_1" x1="14.5344105" x2="14.5344105" y1="19.8917027" y2="17.7222347" gradientUnits="userSpaceOnUse">
			<stop stop-color="rgb(254,240,174)" offset="0" stop-opacity="1" />
			<stop stop-color="rgb(250,198,0)" offset="1" stop-opacity="1" />
		</linearGradient>
		<linearGradient id="paint_linear_2" x1="33.4335785" x2="33.4335785" y1="19.8917027" y2="17.7222347" gradientUnits="userSpaceOnUse">
			<stop stop-color="rgb(254,240,174)" offset="0" stop-opacity="1" />
			<stop stop-color="rgb(250,198,0)" offset="1" stop-opacity="1" />
		</linearGradient>
		<linearGradient id="paint_linear_3" x1="24.8111801" x2="20.4346504" y1="16.8520546" y2="10.6733675" gradientUnits="userSpaceOnUse">
			<stop stop-color="rgb(254,151,56)" offset="0" stop-opacity="0" />
			<stop stop-color="rgb(254,151,56)" offset="1" stop-opacity="1" />
		</linearGradient>
		<linearGradient id="paint_linear_4" x1="39.5981026" x2="21.0530415" y1="49.2867432" y2="30.7416801" gradientUnits="userSpaceOnUse">
			<stop stop-color="rgb(254,240,174)" offset="0" stop-opacity="1" />
			<stop stop-color="rgb(250,198,0)" offset="1" stop-opacity="1" />
		</linearGradient>
		<linearGradient id="paint_linear_5" x1="22.2433815" x2="16.000288" y1="33.049057" y2="29.3804302" gradientUnits="userSpaceOnUse">
			<stop stop-color="rgb(254,151,56)" offset="0" stop-opacity="0" />
			<stop stop-color="rgb(254,151,56)" offset="1" stop-opacity="1" />
		</linearGradient>
		<linearGradient id="paint_linear_6" x1="24.0000477" x2="24.0000477" y1="42.6541481" y2="47.4169312" gradientUnits="userSpaceOnUse">
			<stop stop-color="rgb(254,151,56)" offset="0" stop-opacity="0" />
			<stop stop-color="rgb(254,151,56)" offset="1" stop-opacity="1" />
		</linearGradient>
		<linearGradient id="paint_linear_7" x1="35.7088432" x2="41.5657806" y1="32.3041153" y2="32.3041153" gradientUnits="userSpaceOnUse">
			<stop stop-color="rgb(254,151,56)" offset="0" stop-opacity="0" />
			<stop stop-color="rgb(254,151,56)" offset="1" stop-opacity="1" />
		</linearGradient>
		<linearGradient id="paint_linear_8" x1="38.4004669" x2="33.5411224" y1="23.012085" y2="15.4818058" gradientUnits="userSpaceOnUse">
			<stop stop-color="rgb(254,151,56)" offset="0" stop-opacity="0" />
			<stop stop-color="rgb(254,151,56)" offset="1" stop-opacity="1" />
		</linearGradient>
		<linearGradient id="paint_linear_9" x1="17.0729237" x2="22.608017" y1="2.00559378" y2="11.359499" gradientUnits="userSpaceOnUse">
			<stop stop-color="rgb(245,251,255)" offset="0" stop-opacity="1" />
			<stop stop-color="rgb(219,213,239)" offset="1" stop-opacity="1" />
		</linearGradient>
		<linearGradient id="paint_linear_10" x1="29.2606735" x2="35.4773293" y1="9.88846874" y2="9.88846874" gradientUnits="userSpaceOnUse">
			<stop stop-color="rgb(219,213,239)" offset="0" stop-opacity="0" />
			<stop stop-color="rgb(217,210,238)" offset="0.284999996" stop-opacity="0.284999996" />
			<stop stop-color="rgb(212,201,233)" offset="0.474000007" stop-opacity="0.474000007" />
			<stop stop-color="rgb(203,186,226)" offset="0.63499999" stop-opacity="0.63499999" />
			<stop stop-color="rgb(191,165,215)" offset="0.778999984" stop-opacity="0.779999971" />
			<stop stop-color="rgb(175,138,202)" offset="0.912999988" stop-opacity="0.912999988" />
			<stop stop-color="rgb(162,116,191)" offset="1" stop-opacity="1" />
		</linearGradient>
		<linearGradient id="paint_linear_11" x1="14.5665169" x2="14.5665169" y1="15.3007727" y2="19.8927402" gradientUnits="userSpaceOnUse">
			<stop stop-color="rgb(219,213,239)" offset="0" stop-opacity="0" />
			<stop stop-color="rgb(217,210,238)" offset="0.284999996" stop-opacity="0.284999996" />
			<stop stop-color="rgb(212,201,233)" offset="0.474000007" stop-opacity="0.474000007" />
			<stop stop-color="rgb(203,186,226)" offset="0.63499999" stop-opacity="0.63499999" />
			<stop stop-color="rgb(191,165,215)" offset="0.778999984" stop-opacity="0.779999971" />
			<stop stop-color="rgb(175,138,202)" offset="0.912999988" stop-opacity="0.912999988" />
			<stop stop-color="rgb(162,116,191)" offset="1" stop-opacity="1" />
		</linearGradient>
		<linearGradient id="paint_linear_12" x1="33.4334602" x2="33.4334602" y1="15.3003788" y2="19.8923473" gradientUnits="userSpaceOnUse">
			<stop stop-color="rgb(219,213,239)" offset="0" stop-opacity="0" />
			<stop stop-color="rgb(217,210,238)" offset="0.284999996" stop-opacity="0.284999996" />
			<stop stop-color="rgb(212,201,233)" offset="0.474000007" stop-opacity="0.474000007" />
			<stop stop-color="rgb(203,186,226)" offset="0.63499999" stop-opacity="0.63499999" />
			<stop stop-color="rgb(191,165,215)" offset="0.778999984" stop-opacity="0.779999971" />
			<stop stop-color="rgb(175,138,202)" offset="0.912999988" stop-opacity="0.912999988" />
			<stop stop-color="rgb(162,116,191)" offset="1" stop-opacity="1" />
		</linearGradient>
		<linearGradient id="paint_linear_13" x1="20.8722572" x2="26.8937263" y1="34.3279991" y2="34.3279991" gradientUnits="userSpaceOnUse">
			<stop stop-color="rgb(90,90,90)" offset="0" stop-opacity="1" />
			<stop stop-color="rgb(68,68,68)" offset="1" stop-opacity="1" />
		</linearGradient>
		<linearGradient id="paint_linear_14" x1="23.7785072" x2="20.0455704" y1="34.3290329" y2="35.4230919" gradientUnits="userSpaceOnUse">
			<stop stop-color="rgb(67,63,67)" offset="0" stop-opacity="0" />
			<stop stop-color="rgb(26,26,26)" offset="1" stop-opacity="1" />
		</linearGradient>
		<linearGradient id="paint_linear_15" x1="22.5106316" x2="18.7132893" y1="32.6689987" y2="29.5796547" gradientUnits="userSpaceOnUse">
			<stop stop-color="rgb(67,63,67)" offset="0" stop-opacity="0" />
			<stop stop-color="rgb(26,26,26)" offset="1" stop-opacity="1" />
		</linearGradient>
		<linearGradient id="paint_linear_16" x1="24.0000381" x2="24.0000381" y1="29.8462811" y2="25.5843124" gradientUnits="userSpaceOnUse">
			<stop stop-color="rgb(67,63,67)" offset="0" stop-opacity="0" />
			<stop stop-color="rgb(26,26,26)" offset="1" stop-opacity="1" />
		</linearGradient>
	</defs>
	<rect id="Frame" width="48.000000" height="48.000000" x="0.000000" y="0.000000" fill="rgb(255,255,255)" fill-opacity="0" />
	<g id="Group">
		<path id="Vector" d="M36.8277 16.6084L11.1724 16.6084C10.7186 16.6084 10.2785 16.7639 9.92546 17.049L8.98889 17.8054C8.14929 18.4835 7.47204 19.3408 7.00678 20.3146C6.54152 21.2884 6.30005 22.3539 6.30005 23.4331L6.30005 46.0152C6.30005 47.1113 7.18861 47.9998 8.28474 47.9998L39.7154 47.9998C40.8115 47.9998 41.7001 47.1113 41.7001 46.0152L41.7001 23.4331C41.7001 22.3539 41.4586 21.2884 40.9933 20.3146C40.5281 19.3409 39.8508 18.4835 39.0112 17.8055L38.0746 17.0491C37.7216 16.7639 37.2815 16.6084 36.8277 16.6084Z" fill="url(#paint_linear_0)" fill-rule="nonzero" />
		<path id="Vector" d="M14.5344 20.1296C16.1507 20.1296 17.4609 19.6131 17.4609 18.976C17.4609 18.3388 16.1507 17.8223 14.5344 17.8223C12.9181 17.8223 11.6079 18.3388 11.6079 18.976C11.6079 19.6131 12.9181 20.1296 14.5344 20.1296Z" fill="url(#paint_linear_1)" fill-rule="evenodd" />
		<path id="Vector" d="M33.4336 20.1296C35.0498 20.1296 36.3601 19.6131 36.3601 18.976C36.3601 18.3388 35.0498 17.8223 33.4336 17.8223C31.8173 17.8223 30.5071 18.3388 30.5071 18.976C30.5071 19.6131 31.8173 20.1296 33.4336 20.1296Z" fill="url(#paint_linear_2)" fill-rule="evenodd" />
		<path id="Vector" d="M41.7 46.0151L41.7 23.433C41.7 22.3538 41.4585 21.2883 40.9932 20.3145C40.528 19.3408 39.8507 18.4834 39.0111 17.8054L38.0746 17.049C37.7215 16.7639 37.2814 16.6084 36.8276 16.6084L15.4182 16.6084L12.7034 19.3232L40.9492 47.5691C41.4064 47.2054 41.7 46.6447 41.7 46.0151Z" fill="url(#paint_linear_3)" fill-rule="nonzero" />
		<path id="Vector" d="M23.9999 43.8799C22.2417 43.8799 20.8113 42.4495 20.8113 40.6913L20.8113 37.616C20.8113 36.9493 20.5201 36.3277 20.0124 35.9103C18.4882 34.6572 17.6535 32.8073 17.7222 30.8348C17.7786 29.2126 18.4579 27.6916 19.6349 26.552C20.8112 25.413 22.3529 24.7825 23.976 24.7764L23.9999 24.7764C27.4636 24.7764 30.2815 27.5942 30.2815 31.0579C30.2815 32.9429 29.4454 34.7114 27.9878 35.91C27.4799 36.3277 27.1885 36.9494 27.1885 37.6161L27.1885 40.6914C27.1885 42.4495 25.7581 43.8799 23.9999 43.8799Z" fill="url(#paint_linear_4)" fill-rule="nonzero" />
		<path id="Vector" d="M23.9999 43.8799C22.2417 43.8799 20.8113 42.4495 20.8113 40.6913L20.8113 37.616C20.8113 36.9493 20.5201 36.3277 20.0124 35.9103C18.4882 34.6572 17.6535 32.8073 17.7222 30.8348C17.7786 29.2126 18.4579 27.6916 19.6349 26.552C20.8112 25.413 22.3529 24.7825 23.976 24.7764L23.9999 24.7764C27.4636 24.7764 30.2815 27.5942 30.2815 31.0579C30.2815 32.9429 29.4454 34.7114 27.9878 35.91C27.4799 36.3277 27.1885 36.9494 27.1885 37.6161L27.1885 40.6914C27.1885 42.4495 25.7581 43.8799 23.9999 43.8799Z" fill="url(#paint_linear_5)" fill-rule="nonzero" />
		<path id="Vector" d="M6.30005 24.7021L6.30005 46.0152C6.30005 47.1113 7.18861 47.9999 8.28474 47.9999L39.7154 47.9999C40.8115 47.9999 41.7 47.1113 41.7 46.0152L41.7 24.7021L6.30005 24.7021Z" fill="url(#paint_linear_6)" fill-rule="nonzero" />
		<path id="Vector" d="M39.0114 17.8054L38.0748 17.049C37.7217 16.7639 37.2816 16.6084 36.8278 16.6084L24.6406 16.6084L24.6406 47.9998L39.7154 47.9998C40.8116 47.9998 41.7001 47.1113 41.7001 46.0151L41.7001 23.433C41.7001 22.3538 41.4587 21.2883 40.9934 20.3145C40.5282 19.3408 39.851 18.4835 39.0114 17.8054Z" fill="url(#paint_linear_7)" fill-rule="nonzero" />
		<path id="Vector" d="M39.0112 17.8054L38.0747 17.049C37.7216 16.7639 37.2815 16.6084 36.8277 16.6084L34.2731 16.6084L31.5938 19.2877L41.7 29.3939L41.7 23.4331C41.7 22.3539 41.4586 21.2884 40.9933 20.3146C40.5281 19.3408 39.8508 18.4835 39.0112 17.8054Z" fill="url(#paint_linear_8)" fill-rule="nonzero" />
		<path id="Vector" d="M35.4969 11.4968L35.4969 18.976C35.4969 19.4184 34.5877 19.7768 33.4655 19.7768C32.3441 19.7768 31.4341 19.4184 31.4341 18.976L31.4341 11.4968C31.4341 7.39697 28.099 4.06275 24 4.06275C19.9011 4.06275 16.5659 7.39697 16.5659 11.4968L16.5659 18.976C16.5659 19.4184 15.6559 19.7768 14.5345 19.7768C13.4123 19.7768 12.5032 19.4184 12.5032 18.976L12.5032 11.4968C12.5032 5.15709 17.6602 0 24 0C30.3399 0 35.4969 5.15709 35.4969 11.4968Z" fill="url(#paint_linear_9)" fill-rule="nonzero" />
		<path id="Vector" d="M24 0C23.8361 0 23.6733 0.0043125 23.511 0.0110625L23.511 4.08066C23.6737 4.06938 23.8368 4.06344 24 4.06284C28.0989 4.06284 31.4341 7.39706 31.4341 11.4969L31.4341 18.9761C31.4341 19.4185 32.3441 19.7769 33.4655 19.7769C34.5877 19.7769 35.4968 19.4185 35.4968 18.9761L35.4968 11.4969C35.4968 5.15709 30.3398 0 24 0Z" fill="url(#paint_linear_10)" fill-rule="nonzero" />
		<path id="Vector" d="M14.5345 19.7771C15.6559 19.7771 16.5659 19.4186 16.5659 18.9762L16.5659 11.4971C16.5659 11.1719 16.5892 10.8523 16.6299 10.5381L12.5435 10.5381C12.5172 10.8544 12.5032 11.1741 12.5032 11.4971L12.5032 18.9762C12.5032 19.4186 13.4124 19.7771 14.5345 19.7771Z" fill="url(#paint_linear_11)" fill-rule="nonzero" />
		<path id="Vector" d="M31.4341 11.4966L31.4341 18.9758C31.4341 19.4182 32.3441 19.7766 33.4654 19.7766C34.5877 19.7766 35.4968 19.4182 35.4968 18.9758L35.4968 11.4966C35.4968 11.1736 35.4827 10.8539 35.4565 10.5376L31.3701 10.5376C31.4107 10.8518 31.4341 11.1714 31.4341 11.4966Z" fill="url(#paint_linear_12)" fill-rule="nonzero" />
		<path id="Vector" d="M28.9274 31.0577C28.9274 28.3302 26.7111 26.1202 23.9812 26.1304C21.3528 26.1402 19.1673 28.255 19.0758 30.8818C19.0199 32.4863 19.7319 33.9262 20.8726 34.864C21.6946 35.5397 22.1657 36.5518 22.1657 37.6158L22.1657 40.6912C22.1657 41.7043 22.987 42.5255 24 42.5255C25.0131 42.5255 25.8344 41.7043 25.8344 40.6912L25.8344 37.6158C25.8344 36.5516 26.3057 35.5395 27.1278 34.8637C28.2265 33.9604 28.9274 32.5912 28.9274 31.0577Z" fill="url(#paint_linear_13)" fill-rule="nonzero" />
		<path id="Vector" d="M28.9274 31.0577C28.9274 28.3302 26.7111 26.1202 23.9812 26.1304C21.3528 26.1402 19.1673 28.255 19.0758 30.8818C19.0199 32.4863 19.7319 33.9262 20.8726 34.864C21.6946 35.5397 22.1657 36.5518 22.1657 37.6158L22.1657 40.6912C22.1657 41.7043 22.987 42.5255 24 42.5255C25.0131 42.5255 25.8344 41.7043 25.8344 40.6912L25.8344 37.6158C25.8344 36.5516 26.3057 35.5395 27.1278 34.8637C28.2265 33.9604 28.9274 32.5912 28.9274 31.0577Z" fill="url(#paint_linear_14)" fill-rule="nonzero" />
		<path id="Vector" d="M28.9274 31.0577C28.9274 28.3302 26.7111 26.1202 23.9812 26.1304C21.3528 26.1402 19.1673 28.255 19.0758 30.8818C19.0199 32.4863 19.7319 33.9262 20.8726 34.864C21.6946 35.5397 22.1657 36.5518 22.1657 37.6158L22.1657 40.6912C22.1657 41.7043 22.987 42.5255 24 42.5255C25.0131 42.5255 25.8344 41.7043 25.8344 40.6912L25.8344 37.6158C25.8344 36.5516 26.3057 35.5395 27.1278 34.8637C28.2265 33.9604 28.9274 32.5912 28.9274 31.0577Z" fill="url(#paint_linear_15)" fill-rule="nonzero" />
		<path id="Vector" d="M28.9274 31.0577C28.9274 28.3302 26.7111 26.1202 23.9812 26.1304C21.3528 26.1402 19.1673 28.255 19.0758 30.8818C19.0199 32.4863 19.7319 33.9262 20.8726 34.864C21.6946 35.5397 22.1657 36.5518 22.1657 37.6158L22.1657 40.6912C22.1657 41.7043 22.987 42.5255 24 42.5255C25.0131 42.5255 25.8344 41.7043 25.8344 40.6912L25.8344 37.6158C25.8344 36.5516 26.3057 35.5395 27.1278 34.8637C28.2265 33.9604 28.9274 32.5912 28.9274 31.0577Z" fill="url(#paint_linear_16)" fill-rule="nonzero" />
	</g>
</svg>
