<svg viewBox="0 0 48 48" xmlns="http://www.w3.org/2000/svg" xmlns:xlink="http://www.w3.org/1999/xlink" width="48.000000" height="48.000000" fill="none">
	<rect id="Frame" width="48.000000" height="48.000000" x="0.000000" y="0.000000" fill="rgb(255,255,255)" fill-opacity="0" />
	<g id="Group">
		<path id="Vector" d="M21.5713 8.83184C21.4576 8.83201 21.3455 8.80538 21.2441 8.7541C21.1426 8.70282 21.0546 8.62835 20.9874 8.53672C20.3287 7.64178 19.1566 6.61512 17.3123 6.81209C15.1409 7.04337 13.5284 6.35234 12.5579 5.732C12.3984 5.62749 12.2866 5.46432 12.2467 5.27787C12.2067 5.09143 12.2419 4.89676 12.3446 4.7361C12.4473 4.57544 12.6092 4.46175 12.7952 4.41969C12.9811 4.37764 13.1762 4.41062 13.338 4.51147C14.1132 5.00684 15.4054 5.55875 17.1589 5.37162C19.8203 5.08906 21.4308 6.69519 22.1541 7.67815C22.2335 7.786 22.2814 7.91374 22.2925 8.04719C22.3037 8.18064 22.2776 8.31457 22.2173 8.4341C22.1569 8.55363 22.0646 8.65408 21.9505 8.72429C21.8365 8.79451 21.7052 8.83174 21.5713 8.83184Z" fill="rgb(255,208,100)" fill-rule="nonzero" />
		<path id="Vector" d="M13.9882 12.6779C13.8546 12.678 13.7236 12.6409 13.6099 12.5708C13.5288 12.521 13.4584 12.4558 13.4025 12.3788C13.3467 12.3018 13.3065 12.2146 13.2844 12.1221C13.2623 12.0296 13.2586 11.9336 13.2735 11.8397C13.2885 11.7457 13.3218 11.6557 13.3716 11.5746C14.3 10.0621 16.0014 9.02264 18.2919 8.56851C19.9619 8.23748 21.3632 8.32814 21.4219 8.33226C21.5168 8.33876 21.6095 8.36389 21.6947 8.40621C21.7798 8.44853 21.8558 8.50722 21.9183 8.57892C21.9808 8.65062 22.0286 8.73393 22.0589 8.82409C22.0892 8.91425 22.1014 9.00949 22.0949 9.10439C22.0676 9.5032 21.7211 9.80226 21.3237 9.77751C21.2734 9.77414 16.3553 9.48257 14.6061 12.3324C14.5413 12.4381 14.4505 12.5254 14.3423 12.5859C14.2341 12.6464 14.1121 12.6781 13.9882 12.6779Z" fill="rgb(255,208,100)" fill-rule="nonzero" />
		<path id="Vector" d="M24.9058 40.4322C36.8009 40.4322 43.3782 22.9844 24.594 9.5085C24.1267 9.17325 23.8492 8.63353 23.8555 8.05847C23.8614 7.58344 24.0106 7.12128 24.2837 6.73256C25.1631 5.47678 26.4289 3.32859 27.188 1.59834C27.3698 1.18397 27.1097 0.738281 26.6234 0.738281C25.4951 0.738375 25.4951 0 24.3668 0C23.2385 0 23.2385 0.738375 22.1101 0.738375C21.1487 0.738375 20.7542 -0.0888751 20.2867 0.512812C18.9234 2.26744 23.5929 8.43778 23.5929 8.43778C2.97034 21.995 9.61974 40.4323 21.7956 40.4323L24.9058 40.4323L24.9058 40.4322Z" fill="rgb(234,188,107)" fill-rule="nonzero" />
		<path id="Vector" d="M29.5819 8.43769C29.5819 8.43769 34.3207 2.28731 32.958 0.523031C32.4936 -0.0782813 32.0976 0.738375 31.1371 0.738375C30.0086 0.738281 30.0086 0 28.8802 0C27.7518 0 27.7518 0.738281 26.6234 0.738281C26.5678 0.738281 26.5171 0.735187 26.4668 0.731719C26.0134 2.67516 23.9703 5.70281 22.8011 7.32394C23.2615 7.99959 23.593 8.43759 23.593 8.43759C23.3212 8.61652 23.0513 8.79828 22.7833 8.98284C42.4869 22.5259 35.894 40.4321 23.8436 40.4321L31.4522 40.4321C43.6649 40.4322 50.2732 22.04 29.5819 8.43769Z" fill="rgb(232,174,77)" fill-rule="nonzero" />
		<path id="Vector" d="M30.463 10.6254C27.7095 11.3209 24.9892 11.3209 22.2352 10.6254C21.2767 10.3834 20.7333 9.30552 21.0782 8.32574L21.0897 8.29283C21.379 7.47139 22.1992 7.01042 23.0031 7.21227C25.2578 7.77833 27.4397 7.77852 29.695 7.21227C30.499 7.01042 31.3192 7.47139 31.6084 8.29283L31.6199 8.32574C31.9649 9.30552 31.4215 10.3834 30.463 10.6254Z" fill="rgb(255,224,125)" fill-rule="nonzero" />
		<path id="Vector" d="M4.57288 43.5958L15.0594 47.499C15.95 47.8305 16.8927 48.0003 17.843 48.0003L28.6501 48.0003C30.1625 48.0003 31.6438 47.5705 32.9213 46.761L46.4529 38.1866C47.3457 37.3939 47.5111 36.0617 46.8395 35.0746C46.1046 33.9946 44.8889 33.8069 43.5512 34.4394L30.3769 40.2401L30.3925 38.1027C30.218 36.3483 28.8672 34.9402 27.1215 34.6933L19.0988 33.7696C17.2481 33.5077 16.3233 32.8875 14.7099 31.9437C12.5072 30.6552 10.0013 29.9761 7.44941 29.9761L4.57288 29.9761L4.57288 43.5958Z" fill="rgb(255,221,206)" fill-rule="nonzero" />
		<path id="Vector" d="M14.4225 45.4192C15.3588 45.7677 16.3498 45.9462 17.3488 45.9462L28.71 45.9462C29.9151 45.946 31.106 45.6861 32.2016 45.1843L40.1458 40.1503C40.8839 39.6826 41.3525 38.8685 41.3285 37.995C41.3155 37.5179 41.1657 37.0547 40.8968 36.6604C40.8968 36.6604 40.6549 36.246 40.4064 35.8241L30.3769 40.2401L30.3925 38.1027C30.218 36.3483 28.8672 34.9402 27.1215 34.6933L19.0988 33.7696C17.2481 33.5077 16.3233 32.8875 14.7099 31.9437C12.5072 30.6552 10.0013 29.9761 7.44941 29.9761L4.57288 29.9761L4.57288 41.753L14.4225 45.4192Z" fill="rgb(255,221,206)" fill-rule="nonzero" />
		<path id="Vector" d="M46.8394 35.0741C46.1045 33.9941 44.8888 33.8064 43.5511 34.439L39.9274 36.0345C40.1029 36.3123 40.2425 36.534 40.2425 36.534C40.9141 37.5211 40.7487 38.8533 39.8559 39.646L31.9712 44.6421C30.929 45.1195 29.7962 45.3667 28.6499 45.3669L17.843 45.3669C16.8927 45.3669 15.95 45.1972 15.0594 44.8656L4.57288 40.9624L4.57288 43.5952L15.0594 47.4985C15.95 47.83 16.8927 47.9998 17.843 47.9998L28.6502 47.9998C30.1626 47.9998 31.6439 47.57 32.9214 46.7605L46.453 38.1861C47.3456 37.3934 47.5111 36.0611 46.8394 35.0741Z" fill="rgb(255,203,190)" fill-rule="nonzero" />
		<path id="Vector" d="M29.4088 35.9004L29.4084 35.952L29.4425 35.937C29.4314 35.9246 29.42 35.9127 29.4088 35.9004Z" fill="rgb(245,219,204)" fill-rule="nonzero" />
		<path id="Vector" d="M30.3768 40.2387L22.185 40.2387C21.785 40.2387 21.4607 39.9145 21.4607 39.5144C21.4607 39.1142 21.7849 38.79 22.185 38.79L30.3874 38.79L30.3768 40.2387Z" fill="rgb(255,203,190)" fill-rule="nonzero" />
		<path id="Vector" d="M6.82927 45.6842C6.82927 46.445 6.21249 47.0618 5.45162 47.0618L2.12668 47.0618C1.3658 47.0618 0.749023 46.445 0.749023 45.6842L0.749023 28.8152C0.749023 28.0543 1.3658 27.4375 2.12668 27.4375L5.45162 27.4375C6.21249 27.4375 6.82927 28.0543 6.82927 28.8152L6.82927 45.6842Z" fill="rgb(64,112,147)" fill-rule="nonzero" />
		<path id="Vector" d="M28.1827 22.4463C27.875 22.3379 27.5688 22.2253 27.2642 22.1086L27.2642 17.4905C28.1209 17.6325 28.6352 18.0757 28.6729 18.1091C28.8143 18.2377 29.0009 18.3052 29.1919 18.2968C29.3829 18.2884 29.5628 18.2048 29.6924 18.0642C29.7569 17.9943 29.807 17.9124 29.8398 17.8231C29.8726 17.7338 29.8876 17.639 29.8837 17.5439C29.8799 17.4489 29.8574 17.3555 29.8174 17.2692C29.7775 17.1829 29.721 17.1052 29.651 17.0408C29.6001 16.9936 28.7131 16.1945 27.2641 16.0276L27.2641 14.9977C27.2641 14.5977 26.9399 14.2734 26.5398 14.2734C26.1396 14.2734 25.8155 14.5976 25.8155 14.9977L25.8155 16.0863C25.6342 16.1208 25.4548 16.1646 25.2781 16.2176C24.0494 16.5877 23.131 17.6412 22.8812 18.9669C22.6545 20.1699 23.0359 21.3269 23.8766 21.9863C24.3592 22.3649 24.9669 22.7115 25.8155 23.082L25.8155 28.8103C24.9772 28.7752 24.4625 28.6173 23.5627 28.0288C23.4831 27.9767 23.3941 27.9409 23.3006 27.9232C23.2072 27.9056 23.1111 27.9065 23.018 27.926C22.9249 27.9455 22.8366 27.9831 22.758 28.0367C22.6795 28.0903 22.6122 28.1588 22.5602 28.2384C22.5081 28.318 22.4722 28.4071 22.4546 28.5006C22.4369 28.594 22.4379 28.69 22.4573 28.7831C22.4768 28.8762 22.5144 28.9646 22.568 29.0431C22.6216 29.1217 22.6902 29.1889 22.7698 29.241C23.9522 30.0145 24.7426 30.2163 25.8155 30.258L25.8155 31.4077C25.8155 31.8078 26.1396 32.1321 26.5398 32.1321C26.9399 32.1321 27.2641 31.8079 27.2641 31.4077L27.2641 30.2071C29.2973 29.8772 30.4838 28.2314 30.7418 26.6962C31.0645 24.7779 30.0598 23.1098 28.1827 22.4463ZM24.7706 20.8464C24.3571 20.5222 24.1787 19.9047 24.3049 19.2352C24.4218 18.6143 24.8487 17.8598 25.696 17.6047C25.7363 17.5925 25.776 17.582 25.8156 17.5714L25.8156 21.4838C25.3819 21.2674 25.0417 21.0591 24.7706 20.8464ZM29.3135 26.4558C29.1536 27.4063 28.4559 28.4211 27.2642 28.7265L27.2642 23.6552C27.4051 23.7067 27.5491 23.7588 27.6998 23.812C29.5024 24.4492 29.3906 25.9967 29.3135 26.4558Z" fill="rgb(255,255,255)" fill-rule="nonzero" />
	</g>
</svg>
