<svg viewBox="0 0 48 48" xmlns="http://www.w3.org/2000/svg" xmlns:xlink="http://www.w3.org/1999/xlink" width="48.000000" height="48.000000" fill="none">
	<rect id="Frame" width="48.000000" height="48.000000" x="0.000000" y="0.000000" fill="rgb(255,255,255)" fill-opacity="0" />
	<g id="Group">
		<g id="Group">
			<path id="Vector" d="M19.0509 33.6522L11.6672 33.6391L14.843 28.1383L16.5449 29.1205C16.7228 29.2232 16.9281 29.2687 17.1328 29.2506C17.3375 29.2325 17.5317 29.1517 17.6889 29.0194C17.8461 28.887 17.9587 28.7094 18.0114 28.5108C18.0641 28.3122 18.0543 28.1021 17.9834 27.9093L15.3195 20.6669C15.2388 20.4473 15.0837 20.263 14.8811 20.1461C14.6785 20.0291 14.4414 19.9869 14.2109 20.0268L6.60698 21.341C6.40451 21.376 6.21774 21.4725 6.07207 21.6174C5.92641 21.7624 5.82892 21.9486 5.79287 22.1509C5.75682 22.3532 5.78396 22.5617 5.8706 22.748C5.95724 22.9343 6.09916 23.0894 6.27708 23.1922L7.97723 24.1743L3.93754 31.172C3.32999 32.2243 3.0099 33.4179 3.0094 34.6331C3.0089 35.8482 3.32799 37.0421 3.93467 38.0949C4.54135 39.1478 5.41426 40.0225 6.46583 40.6315C7.51739 41.2404 8.7106 41.562 9.92573 41.5641L19.0443 41.5801L19.048 41.5801C19.5782 41.5798 20.0866 41.369 20.4614 40.994C20.8362 40.6191 21.0468 40.1106 21.0469 39.5804L21.0469 35.6523C21.0462 35.1227 20.8358 34.615 20.4617 34.2402C20.0877 33.8654 19.5804 33.654 19.0509 33.6522ZM44.056 31.2101L39.492 23.3357C39.2258 22.8779 38.789 22.5442 38.2774 22.4075C37.7657 22.2709 37.2207 22.3425 36.7617 22.6066L33.3599 24.5707C33.1323 24.7022 32.9327 24.8773 32.7728 25.0859C32.6128 25.2946 32.4955 25.5327 32.4277 25.7867C32.3599 26.0408 32.3428 26.3056 32.3774 26.5663C32.412 26.8269 32.4977 27.0781 32.6295 27.3056L36.325 33.6815L29.9397 33.6704L29.9397 31.7204C29.9397 31.5149 29.8764 31.3143 29.7584 31.1461C29.6404 30.9778 29.4734 30.85 29.2801 30.7801C29.0869 30.7101 28.8768 30.7014 28.6784 30.7551C28.48 30.8088 28.303 30.9224 28.1714 31.0803L23.2313 37.0084C23.0815 37.1881 22.9995 37.4146 22.9995 37.6485C22.9995 37.8825 23.0815 38.109 23.2313 38.2887L28.1714 44.2169C28.303 44.3747 28.48 44.4882 28.6784 44.5418C28.8767 44.5955 29.0868 44.5868 29.28 44.5168C29.4732 44.4468 29.6402 44.3191 29.7582 44.1509C29.8762 43.9826 29.9395 43.7822 29.9396 43.5767L29.9396 41.5986L38.0504 41.6126L38.0639 41.6126C39.2812 41.62 40.4784 41.303 41.5325 40.6943C42.5866 40.0855 43.4596 39.2071 44.0616 38.1491C44.6771 37.0962 45.0011 35.8984 45.0001 34.6788C44.9991 33.4592 44.6733 32.2619 44.0561 31.21L44.056 31.2101ZM14.1557 17.4738L17.5583 19.4373C18.0178 19.7017 18.5634 19.7731 19.0755 19.6358C19.5875 19.4985 20.0243 19.1638 20.2899 18.705L23.9596 12.3487L27.165 17.88L25.4943 18.8438C25.3164 18.9466 25.1744 19.1017 25.0877 19.288C25.0011 19.4743 24.9739 19.6828 25.0099 19.8851C25.0459 20.0874 25.1434 20.2737 25.289 20.4187C25.4347 20.5636 25.6215 20.6602 25.8239 20.6952L33.4279 22.0093C33.6584 22.0493 33.8957 22.0071 34.0983 21.8901C34.3009 21.7731 34.4561 21.5887 34.5367 21.3691L37.2 14.1272C37.271 13.9343 37.2808 13.7242 37.2281 13.5256C37.1755 13.3269 37.0629 13.1493 36.9056 13.0169C36.7484 12.8846 36.5542 12.8039 36.3495 12.7858C36.1447 12.7677 35.9394 12.8132 35.7614 12.916L34.0313 13.9155L29.952 6.87805C29.3482 5.82253 28.4747 4.94642 27.421 4.33941C26.3674 3.7324 25.1713 3.4163 23.9553 3.42346L23.952 3.42346C22.7355 3.41739 21.5393 3.735 20.486 4.34374C19.4327 4.95247 18.5603 5.83041 17.9582 6.88752L13.4234 14.7416C13.292 14.9691 13.2068 15.2202 13.1726 15.4807C13.1383 15.7411 13.1557 16.0057 13.2237 16.2594C13.2917 16.5132 13.409 16.751 13.569 16.9594C13.7289 17.1677 13.9283 17.3426 14.1558 17.4739L14.1557 17.4738Z" fill="rgb(46,204,113)" fill-rule="nonzero" />
		</g>
		<path id="Vector" d="M19.0509 33.652L11.6672 33.6388L9.32966 37.6873C8.30244 39.4665 7.88591 41.5091 11.1832 41.566L19.0438 41.5797L19.0475 41.5797C19.5778 41.5796 20.0863 41.3689 20.4612 40.9939C20.8361 40.6189 21.0468 40.1104 21.0469 39.5801L21.0469 35.652C21.0462 35.1225 20.8358 34.6148 20.4617 34.24C20.0877 33.8652 19.5804 33.6537 19.0509 33.652ZM43.3546 29.9998L39.4921 23.3354C39.2259 22.8776 38.7891 22.5439 38.2774 22.4073C37.7658 22.2707 37.2208 22.3422 36.7618 22.6063L33.36 24.5705C33.1324 24.702 32.9328 24.877 32.7729 25.0857C32.6129 25.2943 32.4956 25.5325 32.4278 25.7865C32.36 26.0405 32.3429 26.3054 32.3775 26.566C32.4121 26.8266 32.4978 27.0779 32.6296 27.3054L36.3251 33.6812L41.0002 33.6812C43.0866 33.6813 45.0938 32.9998 43.3546 29.9998ZM17.2913 8.04218L13.4233 14.7413C13.292 14.9688 13.2068 15.2199 13.1726 15.4803C13.1383 15.7408 13.1557 16.0054 13.2237 16.2591C13.2917 16.5128 13.409 16.7506 13.569 16.959C13.7289 17.1674 13.9283 17.3422 14.1558 17.4735L17.5584 19.437C18.0179 19.7014 18.5635 19.7728 19.0756 19.6355C19.5876 19.4983 20.0243 19.1635 20.29 18.7047L23.9597 12.3485L21.6221 8.29971C20.5858 6.50477 19.0066 5.11502 17.2913 8.04218Z" fill="rgb(16,94,48)" fill-opacity="0.145098045" fill-rule="nonzero" />
	</g>
</svg>
