<svg viewBox="0 0 48 48" xmlns="http://www.w3.org/2000/svg" xmlns:xlink="http://www.w3.org/1999/xlink" width="48.000000" height="48.000000" fill="none">
	<rect id="Frame" width="48.000000" height="48.000000" x="0.000000" y="0.000000" fill="rgb(255,255,255)" fill-opacity="0" />
	<g id="Group">
		<path id="Vector" d="M43.1212 30.522C40.8873 28.2864 37.7875 27.3393 33.8065 28.4061L19.611 14.1962L19.7986 13.4867C20.6162 10.4191 19.7328 7.12164 17.4938 4.88269C15.2142 2.60125 11.9733 1.76414 8.9083 2.60608C8.69352 2.66504 8.49799 2.77936 8.34126 2.93761C8.18453 3.09585 8.0721 3.29248 8.01522 3.50782C7.95851 3.72311 7.95929 3.94952 8.01747 4.16442C8.07566 4.37932 8.18921 4.57519 8.34678 4.73247L11.7648 8.15052C12.7641 9.15226 12.7544 10.7566 11.7673 11.7463C10.788 12.7282 9.14199 12.7266 8.16662 11.7487L4.7479 8.32975C4.59037 8.17215 4.39419 8.05871 4.17902 8.00078C3.96386 7.94286 3.73724 7.94249 3.52189 7.99971C3.30661 8.05698 3.11016 8.16979 2.95219 8.32685C2.79421 8.48392 2.68027 8.67972 2.62176 8.89466C1.79212 11.926 2.60827 15.187 4.89888 17.4776C7.13189 19.7122 10.2278 20.6627 14.2111 19.5935L28.4077 33.8035C27.3483 37.7832 28.2622 40.853 30.5262 43.117C32.8087 45.4012 36.0511 46.2321 39.1094 45.393C39.3242 45.334 39.5198 45.2197 39.6766 45.0615C39.8333 44.9032 39.9458 44.7066 40.0027 44.4913C40.0595 44.2759 40.0588 44.0495 40.0006 43.8346C39.9424 43.6196 39.8288 43.4237 39.6712 43.2664L36.2539 39.8491C35.2546 38.8474 35.2644 37.2429 36.2514 36.2534C37.2429 35.267 38.8853 35.2827 39.8521 36.2521L43.2711 39.6702C43.4286 39.8277 43.6248 39.9411 43.84 39.999C44.0551 40.0569 44.2817 40.0572 44.497 40C44.7122 39.9428 44.9087 39.83 45.0666 39.6729C45.2246 39.5159 45.3385 39.3202 45.3971 39.1053C46.2267 36.0744 45.4107 32.8126 43.1212 30.522Z" fill="rgb(254,193,0)" fill-rule="nonzero" />
		<path id="Vector" d="M15.9038 24.8977L3.77506 37.028C1.79015 39.0129 1.79015 42.2407 3.77506 44.2255C5.75996 46.2104 8.98776 46.2104 10.9726 44.2255L23.1011 32.0956L15.9038 24.8977ZM9.77728 40.277C9.28022 40.7741 8.47527 40.7741 7.97822 40.277C7.48125 39.78 7.48125 38.9749 7.97822 38.4779L15.6953 30.7594C16.1922 30.2625 16.9975 30.2625 17.4943 30.7594C17.9913 31.2564 17.9913 32.0615 17.4943 32.5585L9.77728 40.277ZM45.3407 4.85175L43.1473 2.65835C42.9467 2.45773 42.6848 2.3299 42.4032 2.2952C42.1216 2.2605 41.8365 2.32091 41.5932 2.46683L34.8459 6.51476C34.136 6.94065 34.0154 7.92008 34.6007 8.50544L35.1378 9.04236L26.5725 17.5726L30.1719 21.172L38.7372 12.6418L39.4937 13.3984C40.0791 13.9836 41.0586 13.8632 41.4844 13.1532L45.5323 6.40594C45.6782 6.16259 45.7386 5.87747 45.7039 5.59588C45.6691 5.3143 45.5413 5.05238 45.3407 4.85175Z" fill="rgb(254,193,0)" fill-rule="nonzero" />
	</g>
</svg>
