<svg viewBox="0 0 48 48" xmlns="http://www.w3.org/2000/svg" xmlns:xlink="http://www.w3.org/1999/xlink" width="48.000000" height="48.000000" fill="none">
	<rect id="Frame" width="48.000000" height="48.000000" x="0.000000" y="0.000000" fill="rgb(255,255,255)" fill-opacity="0" />
	<g id="Group">
		<path id="Vector" d="M47.2 46.4001L28.8 46.4001L28.8 44.8001L24 44.8001L24 46.4001L12 46.4001L12 44.8001L7.2 44.8001L7.2 46.4001L0.8 46.4001C0.587827 46.4001 0.384344 46.4844 0.234315 46.6344C0.0842855 46.7844 2.16493e-16 46.9879 0 47.2001C1.66533e-16 47.4123 0.0842855 47.6158 0.234315 47.7658C0.384344 47.9158 0.587827 48.0001 0.8 48.0001L47.2 48.0001C47.4122 48.0001 47.6157 47.9158 47.7657 47.7658C47.9157 47.6158 48 47.4123 48 47.2001C48 46.9879 47.9157 46.7844 47.7657 46.6344C47.6157 46.4844 47.4122 46.4001 47.2 46.4001ZM12.2784 38.4001L18.7032 38.4001C18.8464 38.4002 18.9869 38.3618 19.1102 38.2891C19.2335 38.2163 19.335 38.1118 19.4041 37.9864C19.4733 37.8611 19.5075 37.7195 19.5033 37.5764C19.499 37.4333 19.4564 37.2939 19.38 37.1729L17.1256 33.6001L8.8104 33.6001L11.6024 38.0265C11.6744 38.1408 11.7741 38.235 11.8923 38.3003C12.0105 38.3656 12.1433 38.3999 12.2784 38.4001ZM8.8 43.2001L10.4 43.2001L10.4 39.1201L8.8 36.5833L8.8 43.2001ZM7.8008 32.0001L16.116 32.0001L13.5912 28.0001L5.2776 28.0001L7.8008 32.0001ZM4.2688 26.4001L12.5816 26.4001L10.8 23.5729C10.7277 23.4584 10.6275 23.3642 10.5089 23.299C10.3902 23.2338 10.257 23.1998 10.1216 23.2001L3.7008 23.2001C3.55776 23.2001 3.41735 23.2385 3.29418 23.3112C3.171 23.3839 3.06958 23.4883 3.00047 23.6136C2.93136 23.7388 2.89709 23.8803 2.90123 24.0232C2.90537 24.1662 2.94776 24.3055 3.024 24.4265L4.2688 26.4001ZM27.2 43.2001L27.2 39.0129L25.6 36.4265L25.6 43.2001L27.2 43.2001ZM29.148 38.4001L38.7336 38.4001C38.8762 38.4001 39.0162 38.362 39.1391 38.2898C39.262 38.2176 39.3634 38.1138 39.4327 37.9892C39.5021 37.8646 39.5368 37.7238 39.5335 37.5812C39.5301 37.4387 39.4887 37.2997 39.4136 37.1785L35.7136 31.2001L24.2488 31.2001L28.468 38.0209C28.5397 38.1368 28.6398 38.2324 28.7588 38.2988C28.8778 38.3652 29.0117 38.4 29.148 38.4001ZM23.2584 29.6001L34.724 29.6001L31.2584 24.0001L19.7944 24.0001L23.2584 29.6001ZM18.8048 22.4001L30.268 22.4001L27.532 17.9793C27.4603 17.8634 27.3602 17.7678 27.2412 17.7014C27.1222 17.635 26.9883 17.6002 26.852 17.6001L17.2712 17.6001C17.1287 17.6 16.9887 17.638 16.8658 17.7102C16.7429 17.7823 16.6415 17.886 16.5721 18.0105C16.5027 18.1349 16.4678 18.2757 16.471 18.4182C16.4742 18.5607 16.5154 18.6997 16.5904 18.8209L18.8048 22.4001Z" fill="rgb(180,92,61)" fill-rule="nonzero" />
		<path id="Vector" d="M38.4 14.4003C41.0509 14.4003 43.2 12.2513 43.2 9.60029C43.2 6.94933 41.0509 4.80029 38.4 4.80029C35.749 4.80029 33.6 6.94933 33.6 9.60029C33.6 12.2513 35.749 14.4003 38.4 14.4003Z" fill="rgb(180,92,61)" fill-rule="evenodd" />
		<path id="Vector" d="M38.4 3.2C38.6122 3.2 38.8157 3.11571 38.9657 2.96569C39.1158 2.81566 39.2001 2.61217 39.2001 2.4L39.2001 0.8C39.2001 0.587827 39.1158 0.384344 38.9657 0.234315C38.8157 0.0842855 38.6122 1.33227e-16 38.4 0C38.1879 1.55431e-16 37.9844 0.0842855 37.8344 0.234315C37.6843 0.384344 37.6 0.587827 37.6 0.8L37.6 2.4C37.6 2.61217 37.6843 2.81566 37.8344 2.96569C37.9844 3.11571 38.1879 3.2 38.4 3.2ZM39.2001 18.4L39.2001 16.8C39.2001 16.5878 39.1158 16.3843 38.9657 16.2343C38.8157 16.0843 38.6122 16 38.4 16C38.1879 16 37.9844 16.0843 37.8344 16.2343C37.6843 16.3843 37.6 16.5878 37.6 16.8L37.6 18.4C37.6 18.6122 37.6843 18.8157 37.8344 18.9657C37.9844 19.1157 38.1879 19.2 38.4 19.2C38.6122 19.2 38.8157 19.1157 38.9657 18.9657C39.1158 18.8157 39.2001 18.6122 39.2001 18.4ZM34.1072 3.7648C34.2141 3.94705 34.3887 4.07963 34.5929 4.13363C34.7971 4.18763 35.0145 4.15865 35.1974 4.05302C35.3804 3.94739 35.5141 3.77369 35.5695 3.56981C35.6248 3.36594 35.5973 3.14845 35.4929 2.9648L34.6928 1.5792C34.6407 1.48748 34.5709 1.40699 34.4875 1.34235C34.4042 1.2777 34.3088 1.2302 34.207 1.20255C34.1052 1.17491 33.9989 1.16768 33.8943 1.18128C33.7897 1.19488 33.6888 1.22904 33.5974 1.28179C33.506 1.33454 33.426 1.40485 33.3619 1.48866C33.2978 1.57247 33.2509 1.66812 33.224 1.77012C33.197 1.87212 33.1905 1.97845 33.2048 2.08298C33.2191 2.18751 33.2539 2.28818 33.3072 2.3792L34.1072 3.7648ZM42.1072 17.6208C42.1594 17.7125 42.2292 17.793 42.3125 17.8577C42.3959 17.9223 42.4913 17.9698 42.5931 17.9974C42.6949 18.0251 42.8012 18.0323 42.9058 18.0187C43.0104 18.0051 43.1113 17.971 43.2027 17.9182C43.2941 17.8655 43.3741 17.7952 43.4382 17.7113C43.5023 17.6275 43.5492 17.5319 43.5761 17.4299C43.6031 17.3279 43.6096 17.2216 43.5953 17.117C43.581 17.0125 43.5462 16.9118 43.4929 16.8208L42.6928 15.4352C42.6407 15.3435 42.5709 15.263 42.4875 15.1983C42.4042 15.1337 42.3088 15.0862 42.207 15.0586C42.1052 15.0309 41.9989 15.0237 41.8943 15.0373C41.7897 15.0509 41.6888 15.085 41.5974 15.1378C41.506 15.1905 41.426 15.2608 41.3619 15.3447C41.2978 15.4285 41.2509 15.5241 41.224 15.6261C41.197 15.7281 41.1905 15.8344 41.2048 15.939C41.2191 16.0435 41.2539 16.1442 41.3072 16.2352L42.1072 17.6208ZM30.3792 5.8928L31.7649 6.6928C31.9485 6.79721 32.166 6.82475 32.3699 6.7694C32.5737 6.71405 32.7474 6.58031 32.8531 6.39736C32.9587 6.21441 32.9877 5.9971 32.9337 5.79287C32.8797 5.58863 32.7471 5.41404 32.5648 5.3072L31.1792 4.5072C31.0882 4.45384 30.9876 4.41901 30.883 4.40472C30.7785 4.39043 30.6722 4.39695 30.5702 4.42392C30.4682 4.45089 30.3725 4.49776 30.2887 4.56185C30.2049 4.62594 30.1346 4.70597 30.0818 4.79734C30.0291 4.88871 29.9949 4.98961 29.9813 5.09423C29.9677 5.19885 29.975 5.30514 30.0026 5.40695C30.0302 5.50877 30.0778 5.60412 30.1424 5.6875C30.207 5.77088 30.2875 5.84065 30.3792 5.8928ZM44.2352 13.8928L45.6208 14.6928C45.7119 14.7462 45.8125 14.781 45.9171 14.7953C46.0216 14.8096 46.1279 14.803 46.2299 14.7761C46.3319 14.7491 46.4276 14.7022 46.5114 14.6381C46.5952 14.5741 46.6655 14.494 46.7183 14.4027C46.771 14.3113 46.8052 14.2104 46.8188 14.1058C46.8324 14.0011 46.8251 13.8949 46.7975 13.793C46.7699 13.6912 46.7223 13.5959 46.6577 13.5125C46.5931 13.4291 46.5126 13.3593 46.4209 13.3072L45.0352 12.5072C44.9442 12.4538 44.8436 12.419 44.739 12.4047C44.6345 12.3904 44.5282 12.397 44.4262 12.4239C44.3242 12.4509 44.2285 12.4978 44.1447 12.5619C44.0609 12.6259 43.9906 12.706 43.9378 12.7973C43.8851 12.8887 43.8509 12.9896 43.8373 13.0942C43.8237 13.1989 43.831 13.3051 43.8586 13.407C43.8862 13.5088 43.9338 13.6041 43.9984 13.6875C44.063 13.7709 44.1435 13.8407 44.2352 13.8928ZM29.6 10.4L31.2 10.4C31.4122 10.4 31.6157 10.3157 31.7657 10.1657C31.9158 10.0157 32 9.81217 32 9.6C32 9.38783 31.9158 9.18434 31.7657 9.03432C31.6157 8.88429 31.4122 8.8 31.2 8.8L29.6 8.8C29.3879 8.8 29.1844 8.88429 29.0344 9.03432C28.8843 9.18434 28.8 9.38783 28.8 9.6C28.8 9.81217 28.8843 10.0157 29.0344 10.1657C29.1844 10.3157 29.3879 10.4 29.6 10.4ZM47.2001 8.8L45.6001 8.8C45.3879 8.8 45.1844 8.88429 45.0344 9.03432C44.8843 9.18434 44.8 9.38783 44.8 9.6C44.8 9.81217 44.8843 10.0157 45.0344 10.1657C45.1844 10.3157 45.3879 10.4 45.6001 10.4L47.2001 10.4C47.4122 10.4 47.6157 10.3157 47.7657 10.1657C47.9158 10.0157 48 9.81217 48 9.6C48 9.38783 47.9158 9.18434 47.7657 9.03432C47.6157 8.88429 47.4122 8.8 47.2001 8.8ZM32.8576 12.8C32.7516 12.6163 32.5768 12.4822 32.3719 12.4273C32.167 12.3724 31.9486 12.4011 31.7649 12.5072L30.3792 13.3072C30.2875 13.3593 30.207 13.4291 30.1424 13.5125C30.0778 13.5959 30.0302 13.6912 30.0026 13.793C29.975 13.8949 29.9677 14.0011 29.9813 14.1058C29.9949 14.2104 30.0291 14.3113 30.0818 14.4027C30.1346 14.494 30.2049 14.5741 30.2887 14.6381C30.3725 14.7022 30.4682 14.7491 30.5702 14.7761C30.6722 14.803 30.7785 14.8096 30.883 14.7953C30.9876 14.781 31.0882 14.7462 31.1792 14.6928L32.5648 13.8928C32.7486 13.7867 32.8827 13.612 32.9376 13.407C32.9925 13.2021 32.9637 12.9837 32.8576 12.8ZM44.64 6.8C44.7805 6.8003 44.9186 6.7633 45.04 6.6928L46.4257 5.8928C46.5174 5.84065 46.5979 5.77088 46.6625 5.6875C46.7271 5.60412 46.7747 5.50877 46.8023 5.40695C46.8299 5.30514 46.8372 5.19885 46.8236 5.09423C46.81 4.98961 46.7758 4.88871 46.7231 4.79734C46.6703 4.70597 46.6 4.62594 46.5162 4.56185C46.4324 4.49776 46.3367 4.45089 46.2347 4.42392C46.1327 4.39695 46.0264 4.39043 45.9219 4.40472C45.8173 4.41901 45.7167 4.45384 45.6256 4.5072L44.24 5.3072C44.0875 5.39526 43.9684 5.53118 43.901 5.69387C43.8336 5.85657 43.8218 6.03696 43.8673 6.20706C43.9129 6.37716 44.0134 6.52747 44.1531 6.63467C44.2928 6.74188 44.4639 6.79999 44.64 6.8ZM33.6 17.9144C33.6911 17.9669 33.7916 18.0009 33.8957 18.0146C33.9999 18.0282 34.1058 18.0212 34.2073 17.994C34.3088 17.9667 34.4039 17.9197 34.4872 17.8557C34.5705 17.7917 34.6404 17.7118 34.6928 17.6208L35.4929 16.2352C35.5973 16.0516 35.6248 15.8341 35.5695 15.6302C35.5141 15.4263 35.3804 15.2526 35.1974 15.147C35.0145 15.0414 34.7971 15.0124 34.5929 15.0664C34.3887 15.1204 34.2141 15.253 34.1072 15.4352L33.3072 16.8208C33.2546 16.9118 33.2204 17.0123 33.2066 17.1166C33.1928 17.2208 33.1997 17.3267 33.2269 17.4283C33.2541 17.5299 33.3011 17.6251 33.3651 17.7085C33.4291 17.7919 33.509 17.8619 33.6 17.9144ZM41.6 4.0576C41.7838 4.16368 42.0022 4.19243 42.2071 4.13752C42.412 4.08261 42.5868 3.94854 42.6928 3.7648L43.4929 2.3792C43.5462 2.28818 43.581 2.18751 43.5953 2.08298C43.6096 1.97845 43.6031 1.87212 43.5761 1.77012C43.5492 1.66812 43.5023 1.57247 43.4382 1.48866C43.3741 1.40485 43.2941 1.33454 43.2027 1.28179C43.1113 1.22904 43.0104 1.19488 42.9058 1.18128C42.8012 1.16768 42.6949 1.17491 42.5931 1.20255C42.4913 1.2302 42.3959 1.2777 42.3125 1.34235C42.2292 1.40699 42.1594 1.48748 42.1072 1.5792L41.3072 2.9648C41.2012 3.14854 41.1724 3.3669 41.2273 3.57184C41.2822 3.77678 41.4163 3.95151 41.6 4.0576Z" fill="rgb(180,92,61)" fill-rule="nonzero" />
	</g>
</svg>
