<svg viewBox="0 0 48 48" xmlns="http://www.w3.org/2000/svg" xmlns:xlink="http://www.w3.org/1999/xlink" width="48.000000" height="48.000000" fill="none">
	<rect id="Frame" width="48.000000" height="48.000000" x="0.000000" y="0.000000" fill="rgb(255,255,255)" fill-opacity="0" />
	<g id="Group">
		<path id="Vector" d="M13.5 18C15.9853 18 18 15.9853 18 13.5C18 11.0147 15.9853 9 13.5 9C11.0147 9 9 11.0147 9 13.5C9 15.9853 11.0147 18 13.5 18Z" fill="rgb(47,167,95)" fill-rule="evenodd" />
		<path id="Vector" d="M13.5 7.5C13.8978 7.5 14.2794 7.34196 14.5607 7.06066C14.842 6.77936 15 6.39782 15 6L15 4.5C15 4.10218 14.842 3.72064 14.5607 3.43934C14.2794 3.15804 13.8978 3 13.5 3C13.1022 3 12.7207 3.15804 12.4393 3.43934C12.158 3.72064 12 4.10218 12 4.5L12 6C12 6.39782 12.158 6.77936 12.4393 7.06066C12.7207 7.34196 13.1022 7.5 13.5 7.5ZM7.13551 9.258C7.27449 9.39778 7.43973 9.5087 7.62173 9.58439C7.80373 9.66009 7.99889 9.69905 8.19601 9.69905C8.39312 9.69905 8.58829 9.66009 8.77028 9.58439C8.95228 9.5087 9.11753 9.39778 9.25651 9.258C9.53771 8.97671 9.69569 8.59525 9.69569 8.1975C9.69569 7.79975 9.53771 7.41829 9.25651 7.137L8.19601 6.0765C8.05764 5.93324 7.89212 5.81896 7.70911 5.74035C7.52611 5.66173 7.32928 5.62035 7.13011 5.61862C6.93094 5.61689 6.73342 5.65485 6.54908 5.73027C6.36473 5.80569 6.19725 5.91707 6.05641 6.05791C5.91557 6.19875 5.80419 6.36622 5.72877 6.55057C5.65335 6.73491 5.6154 6.93243 5.61713 7.1316C5.61886 7.33077 5.66024 7.5276 5.73885 7.71061C5.81747 7.89361 5.93174 8.05913 6.07501 8.1975L7.13551 9.258ZM7.50001 13.5C7.50001 13.1022 7.34197 12.7206 7.06067 12.4393C6.77936 12.158 6.39783 12 6.00001 12L4.50001 12C4.10218 12 3.72065 12.158 3.43935 12.4393C3.15804 12.7206 3.00001 13.1022 3.00001 13.5C3.00001 13.8978 3.15804 14.2794 3.43935 14.5607C3.72065 14.842 4.10218 15 4.50001 15L6.00001 15C6.39783 15 6.77936 14.842 7.06067 14.5607C7.34197 14.2794 7.50001 13.8978 7.50001 13.5ZM7.13551 17.742L6.07501 18.8025C5.93174 18.9409 5.81747 19.1064 5.73885 19.2894C5.66024 19.4724 5.61886 19.6692 5.61713 19.8684C5.6154 20.0676 5.65335 20.2651 5.72877 20.4494C5.80419 20.6338 5.91557 20.8013 6.05641 20.9421C6.19725 21.0829 6.36473 21.1943 6.54908 21.2697C6.73342 21.3452 6.93094 21.3831 7.13011 21.3814C7.32928 21.3796 7.52611 21.3383 7.70911 21.2597C7.89212 21.181 8.05764 21.0668 8.19601 20.9235L9.25651 19.863C9.39977 19.7246 9.51405 19.5591 9.59266 19.3761C9.67127 19.1931 9.71265 18.9963 9.71438 18.7971C9.71611 18.5979 9.67816 18.4004 9.60274 18.2161C9.52732 18.0317 9.41594 17.8642 9.2751 17.7234C9.13426 17.5826 8.96678 17.4712 8.78244 17.3958C8.59809 17.3203 8.40057 17.2824 8.2014 17.2841C8.00224 17.2859 7.80541 17.3272 7.6224 17.4058C7.43939 17.4845 7.27388 17.5987 7.13551 17.742ZM13.5 19.5C13.1022 19.5 12.7207 19.658 12.4393 19.9393C12.158 20.2206 12 20.6022 12 21L12 22.5C12 22.8978 12.158 23.2794 12.4393 23.5607C12.7207 23.842 13.1022 24 13.5 24C13.8978 24 14.2794 23.842 14.5607 23.5607C14.842 23.2794 15 22.8978 15 22.5L15 21C15 20.6022 14.842 20.2206 14.5607 19.9393C14.2794 19.658 13.8978 19.5 13.5 19.5ZM19.8645 17.742C19.7261 17.5987 19.5606 17.4845 19.3776 17.4058C19.1946 17.3272 18.9978 17.2859 18.7986 17.2841C18.5994 17.2824 18.4019 17.3203 18.2176 17.3958C18.0332 17.4712 17.8658 17.5826 17.7249 17.7234C17.5841 17.8642 17.4727 18.0317 17.3973 18.2161C17.3219 18.4004 17.2839 18.5979 17.2856 18.7971C17.2874 18.9963 17.3287 19.1931 17.4074 19.3761C17.486 19.5591 17.6002 19.7246 17.7435 19.863L18.804 20.9235C18.943 21.0633 19.1082 21.1742 19.2902 21.2499C19.4722 21.3256 19.6674 21.3646 19.8645 21.3646C20.0616 21.3646 20.2568 21.3256 20.4388 21.2499C20.6208 21.1742 20.786 21.0633 20.925 20.9235C21.2062 20.6422 21.3642 20.2607 21.3642 19.863C21.3642 19.4653 21.2062 19.0838 20.925 18.8025L19.8645 17.742ZM22.5 12L21 12C20.6022 12 20.2207 12.158 19.9393 12.4393C19.658 12.7206 19.5 13.1022 19.5 13.5C19.5 13.8978 19.658 14.2794 19.9393 14.5607C20.2207 14.842 20.6022 15 21 15L22.5 15C22.8978 15 23.2794 14.842 23.5607 14.5607C23.842 14.2794 24 13.8978 24 13.5C24 13.1022 23.842 12.7206 23.5607 12.4393C23.2794 12.158 22.8978 12 22.5 12ZM18.804 9.6975C19.001 9.6977 19.1961 9.65898 19.3781 9.58356C19.5601 9.50813 19.7254 9.3975 19.8645 9.258L20.925 8.1975C21.0683 8.05913 21.1825 7.89361 21.2612 7.71061C21.3398 7.5276 21.3812 7.33077 21.3829 7.1316C21.3846 6.93243 21.3467 6.73491 21.2712 6.55057C21.1958 6.36622 21.0844 6.19875 20.9436 6.05791C20.8028 5.91707 20.6353 5.80569 20.4509 5.73027C20.2666 5.65485 20.0691 5.61689 19.8699 5.61862C19.6707 5.62035 19.4739 5.66173 19.2909 5.74035C19.1079 5.81896 18.9424 5.93324 18.804 6.0765L17.7435 7.137C17.5338 7.34678 17.391 7.61402 17.3331 7.90495C17.2753 8.19588 17.305 8.49743 17.4185 8.77148C17.532 9.04553 17.7242 9.27978 17.9708 9.4446C18.2174 9.60943 18.5074 9.69744 18.804 9.6975ZM27 25.5L19.5 25.5C18.7044 25.5 17.9413 25.8161 17.3787 26.3787C16.8161 26.9413 16.5 27.7043 16.5 28.5L16.5 42C16.5 42.7957 16.8161 43.5587 17.3787 44.1213C17.9413 44.6839 18.7044 45 19.5 45L27 45C27.7957 45 28.5587 44.6839 29.1213 44.1213C29.6839 43.5587 30 42.7957 30 42L30 28.5C30 27.7043 29.6839 26.9413 29.1213 26.3787C28.5587 25.8161 27.7957 25.5 27 25.5ZM25.4205 35.586L23.9205 38.586C23.8305 38.7622 23.6744 38.8958 23.4864 38.9574C23.2983 39.0191 23.0935 39.004 22.9166 38.9153C22.7397 38.8267 22.6049 38.6717 22.5418 38.4841C22.4787 38.2965 22.4922 38.0916 22.5795 37.914L23.535 36L21.75 36C21.622 36.0003 21.496 35.9677 21.3841 35.9055C21.2722 35.8433 21.1781 35.7535 21.1108 35.6446C21.0434 35.5358 21.005 35.4115 20.9993 35.2836C20.9935 35.1557 21.0207 35.0285 21.078 34.914L22.578 31.914C22.668 31.7378 22.8241 31.6042 23.0121 31.5426C23.2002 31.4809 23.405 31.496 23.5819 31.5847C23.7588 31.6733 23.8936 31.8283 23.9567 32.0159C24.0198 32.2035 24.0063 32.4084 23.919 32.586L22.965 34.5L24.75 34.5C24.8779 34.5 25.0037 34.5327 25.1154 34.595C25.2271 34.6573 25.321 34.7472 25.3881 34.856C25.4553 34.9648 25.4936 35.089 25.4992 35.2168C25.5049 35.3446 25.4778 35.4717 25.4205 35.586ZM36.75 36.75L31.5 36.75L31.5 33.75L35.25 33.75L35.25 25.5L38.25 25.5L38.25 35.25C38.25 35.6478 38.092 36.0294 37.8107 36.3107C37.5294 36.592 37.1478 36.75 36.75 36.75ZM34.5 18L39 18L39 24L34.5 24L34.5 18ZM28.5 10.5L33 10.5L33 16.5L28.5 16.5L28.5 10.5ZM34.5 10.5L39 10.5L39 16.5L34.5 16.5L34.5 10.5ZM40.5 9L45 9L45 4.5C45 4.10218 44.842 3.72064 44.5607 3.43934C44.2794 3.15804 43.8978 3 43.5 3L40.5 3L40.5 9ZM40.5 18L40.5 24L43.5 24C43.8978 24 44.2794 23.842 44.5607 23.5607C44.842 23.2794 45 22.8978 45 22.5L45 18L40.5 18ZM34.5 3L39 3L39 9L34.5 9L34.5 3ZM33 9L33 3L30 3C29.6022 3 29.2207 3.15804 28.9393 3.43934C28.658 3.72064 28.5 4.10218 28.5 4.5L28.5 9L33 9ZM33 18L28.5 18L28.5 22.5C28.5 22.8978 28.658 23.2794 28.9393 23.5607C29.2207 23.842 29.6022 24 30 24L33 24L33 18ZM40.5 10.5L45 10.5L45 16.5L40.5 16.5L40.5 10.5ZM15 29.25L10.1835 29.25C9.83998 28.4595 9.23443 27.8116 8.46894 27.4156C7.70344 27.0195 6.8248 26.8994 5.9811 27.0756C5.1374 27.2518 4.38023 27.7134 3.83721 28.3827C3.29418 29.052 2.9985 29.8881 3.00001 30.75C3.0018 31.6101 3.29922 32.4435 3.8424 33.1104C4.38559 33.7773 5.14152 34.2372 5.98349 34.413C6.82545 34.5888 7.70226 34.4698 8.46693 34.076C9.23161 33.6822 9.83766 33.0375 10.1835 32.25L15 32.25L15 29.25ZM15 38.25L10.1835 38.25C9.83998 37.4595 9.23443 36.8116 8.46894 36.4156C7.70344 36.0195 6.8248 35.8994 5.9811 36.0756C5.1374 36.2518 4.38023 36.7134 3.83721 37.3827C3.29418 38.052 2.9985 38.8881 3.00001 39.75C3.0018 40.6101 3.29922 41.4435 3.8424 42.1104C4.38559 42.7773 5.14152 43.2372 5.98349 43.413C6.82545 43.5888 7.70226 43.4698 8.46693 43.076C9.23161 42.6822 9.83766 42.0375 10.1835 41.25L15 41.25L15 38.25Z" fill="rgb(47,167,95)" fill-rule="nonzero" />
	</g>
</svg>
