<svg viewBox="0 0 24 24" xmlns="http://www.w3.org/2000/svg" xmlns:xlink="http://www.w3.org/1999/xlink" width="24.000000" height="24.000000" fill="none">
	<rect id="Frame" width="24.000000" height="24.000000" x="0.000000" y="0.000000" fill="rgb(255,255,255)" fill-opacity="0" />
	<g id="Group">
		<path id="Vector" d="M23.2363 6.06564C22.9771 5.10172 22.2171 4.34189 21.2533 4.08233C19.4926 3.60059 12.4497 3.60059 12.4497 3.60059C12.4497 3.60059 5.40703 3.60059 3.64633 4.06409C2.70109 4.32336 1.92259 5.1019 1.66331 6.06564C1.19995 7.82619 1.19995 11.4774 1.19995 11.4774C1.19995 11.4774 1.19995 15.147 1.66331 16.8891C1.92283 17.8529 2.68256 18.6128 3.64647 18.8723C5.42555 19.3542 12.4499 19.3542 12.4499 19.3542C12.4499 19.3542 19.4926 19.3542 21.2533 18.8907C22.2172 18.6312 22.9771 17.8714 23.2366 16.9076C23.6998 15.1469 23.6998 11.4959 23.6998 11.4959C23.6998 11.4959 23.7183 7.82615 23.2363 6.06564ZM10.2073 14.8505L10.2073 8.10424L16.0639 11.4773L10.2073 14.8505Z" fill="rgb(255,255,255)" fill-rule="nonzero" />
	</g>
</svg>
