<svg viewBox="0 0 24 24" xmlns="http://www.w3.org/2000/svg" xmlns:xlink="http://www.w3.org/1999/xlink" width="24.000000" height="24.000000" fill="none">
	<rect id="icons8-apple-logo 1" width="24.000000" height="24.000000" x="0.000000" y="0.000000" fill="rgb(255,255,255)" fill-opacity="0" />
	<path id="Vector" d="M13.7664 1.9949C14.6683 0.901776 16.1252 0.0917763 17.4864 -9.8604e-05C17.7358 -0.0188486 17.9589 0.157401 17.9964 0.404901C18.2214 1.91615 17.6139 3.35428 16.8264 4.3649C16.3933 4.92178 15.8158 5.3999 15.1614 5.7449C15.2608 5.7074 15.3395 5.71115 15.4464 5.6699C16.0914 5.42803 16.8789 5.1749 17.9514 5.1749C19.6333 5.1749 21.3508 6.07303 22.5714 7.5899C22.6595 7.70053 22.6933 7.84678 22.6652 7.98553C22.6352 8.12428 22.547 8.2424 22.4214 8.3099C20.7208 9.24178 20.0458 10.8843 20.1864 12.4799C20.327 14.0755 21.3002 15.5849 23.0064 16.2299C23.1302 16.2768 23.2295 16.3724 23.2802 16.4943C23.3327 16.6162 23.3308 16.7549 23.2764 16.8749C22.7552 18.0262 22.4833 18.5887 21.8064 19.6199C21.3339 20.338 20.762 21.1574 20.0664 21.8249C19.3708 22.4924 18.5327 23.0324 17.5464 23.0399C16.7752 23.0469 16.2281 22.7973 15.7479 22.5783C15.712 22.562 15.6766 22.5458 15.6414 22.5299C15.1352 22.3012 14.6683 22.1024 13.7664 22.1099L13.7514 22.1099C12.8458 22.1137 12.3639 22.3162 11.8464 22.5449C11.8203 22.5564 11.7941 22.5681 11.7676 22.5798C11.2702 22.8007 10.7116 23.0488 9.9264 23.0399C8.9589 23.0305 8.1339 22.5543 7.4514 21.9299C6.7689 21.3055 6.21578 20.5199 5.7414 19.7999C3.0489 15.6993 2.69265 10.9012 4.4664 8.1749C5.68515 6.29803 7.61828 5.1749 9.5064 5.1749C10.457 5.1749 11.222 5.43178 11.8914 5.6699C12.137 5.75803 12.3414 5.76553 12.5664 5.8349C12.3152 4.36865 12.977 2.95678 13.7664 1.9949Z" fill="rgb(0,0,0)" fill-rule="evenodd" />
</svg>
