<svg viewBox="0 0 61.7143 60.1904" xmlns="http://www.w3.org/2000/svg" xmlns:xlink="http://www.w3.org/1999/xlink" width="61.714294" height="60.190430" fill="none">
	<rect id="Logo" width="61.714287" height="60.190475" x="0.000000" y="0.000000" fill="rgb(255,255,255)" fill-opacity="0" />
	<g id="Group">
		<path id="Vector" d="M29.8524 20.8229C31.963 20.622 34.0178 21.0178 35.7481 22.2941C37.078 23.2751 38.2897 24.6878 38.8059 26.2943C38.9297 26.6799 38.9756 27.1325 39.0368 27.5347C39.4117 30.0028 39.044 32.2028 37.5404 34.2383C36.7006 35.3756 35.227 36.4838 33.9035 36.9606C33.2314 37.2027 32.5674 37.3023 31.8652 37.4044L31.7753 37.4191C29.6656 37.6526 27.5426 37.098 25.8582 35.8039C24.2199 34.5452 22.9707 32.5832 22.7059 30.5105C22.3798 27.9591 22.9124 25.7357 24.4921 23.7071C25.7934 22.0361 27.799 21.0904 29.8524 20.8229Z" fill="rgb(254,254,0)" fill-rule="nonzero" />
		<path id="Vector" d="M30.5189 22.1392C32.0648 21.9879 33.8393 22.5514 35.0687 23.4918C36.5364 24.6144 37.5443 26.2765 37.7895 28.1231C38.0542 30.1181 37.5149 31.9669 36.3046 33.558C35.0964 35.1463 33.2959 35.8596 31.3915 36.1166C29.4998 36.2052 27.7905 35.653 26.3288 34.436C25.0422 33.3648 24.1123 31.5467 23.9631 29.8782C23.7893 27.9346 24.3887 26.0281 25.6297 24.5293C26.881 23.0183 28.6242 22.3074 30.5189 22.1392Z" fill="rgb(254,193,0)" fill-rule="nonzero" />
		<path id="Vector" d="M20.0608 0.0608072C20.4057 0.00304483 20.7737 0.0310003 21.1196 0.0698788C21.4621 0.108387 21.7987 0.241068 22.1319 0.328514C25.6454 1.25086 27.9422 4.20686 30.0928 6.95119C29.697 8.35279 28.7185 9.72705 28.0316 11.007C27.0281 12.8767 26.146 14.8102 25.1686 16.6934C24.6897 17.6165 24.0822 18.4817 23.6374 19.4143C22.9139 19.074 22.2798 18.6508 21.6251 18.1932C20.8565 17.5066 19.7053 16.964 18.8268 16.4075C17.3133 15.4487 15.791 14.5047 14.2782 13.5449C13.0279 12.7517 11.7786 11.8483 10.4099 11.2834C10.6563 10.5985 11.1132 10.0272 11.5056 9.42331C12.122 8.47517 12.7392 7.52906 13.3659 6.58783C14.6575 4.6481 15.8969 2.66727 17.2578 0.776295C18.1877 0.438422 19.1518 0.386029 20.0608 0.0608072Z" fill="rgb(255,255,255)" fill-rule="nonzero" />
		<path id="Vector" d="M55.2093 19.0645L55.577 19.1021C55.9186 19.9962 56.4578 20.8166 56.8832 21.6751C57.8872 23.7023 58.8719 25.7386 59.8854 27.7612C60.382 28.7523 60.8913 29.7125 61.3003 30.7466C61.4814 31.2052 61.6839 31.6328 61.6826 32.1357C61.6787 33.9493 60.4165 35.3027 59.208 36.4935C58.1737 37.5125 56.8154 38.5839 55.3897 38.9669C54.8377 39.1152 54.0816 39.0597 53.51 39.0689C51.8791 39.0958 50.247 39.0715 48.6161 39.0594L48.4126 38.9794L42.2285 27.2845C42.1868 27.1802 42.1178 27.0598 42.166 26.9534C42.2187 26.8372 42.2926 26.7612 42.3965 26.6897C42.8361 26.3878 43.3373 26.1725 43.7946 25.8977C44.3905 25.5393 44.9454 25.1162 45.5394 24.756C46.1053 24.4129 46.7081 24.134 47.2728 23.7896C49.582 22.3821 51.8378 20.8442 54.1949 19.5175C54.515 19.3373 54.869 19.2012 55.2093 19.0645Z" fill="rgb(255,255,255)" fill-rule="nonzero" />
		<path id="Vector" d="M1.31943 19.1064L14.9298 19.0996C15.1946 19.933 15.7176 20.6074 16.1247 21.3662C17.6482 24.2066 19.1759 27.039 20.6515 29.9046C20.8766 30.3417 21.5563 31.3013 21.5574 31.7383L21.3835 31.8981C20.826 31.9902 17.8518 30.0417 17.0837 29.7146L14.3376 35.5848L12.6355 39.4051C11.415 39.3323 10.1709 39.3798 8.94719 39.3762C8.38648 39.3746 7.74672 39.4188 7.19607 39.3047C6.24231 39.107 5.20559 38.5977 4.38794 38.072C3.86198 37.7338 3.41133 37.2662 2.9646 36.831C1.81359 35.7104 0.405451 34.2412 0.0648604 32.5978C0.0158982 32.3611 0.0173076 32.1322 0.0955614 31.9023C0.509013 30.6876 1.27304 29.4833 1.82517 28.323C2.79136 26.2926 3.59333 24.0552 4.83411 22.1727L0.601729 19.661L0.573112 19.6474L0.534873 19.4822C0.803522 19.1307 0.901753 19.1713 1.31943 19.1064Z" fill="rgb(255,255,255)" fill-rule="nonzero" />
		<path id="Vector" d="M0.778687 36.4946C0.88182 36.5104 1.0618 36.5123 1.15231 36.552C1.30122 36.6173 1.53267 36.8721 1.66099 36.9856C1.96481 37.2542 2.28573 37.4966 2.61419 37.7333C3.25082 38.1924 4.00057 38.6109 4.69383 38.9736C5.26832 39.2744 6.27428 39.5502 6.913 39.685C7.61428 39.8329 8.4315 39.7607 9.14939 39.7604C10.5231 39.7591 11.8961 39.7459 13.2693 39.743C18.1026 39.7322 22.9358 39.7531 27.769 39.7401L27.7592 55.3908C27.4504 55.4807 27.0805 55.4512 26.7592 55.4541C24.3569 55.4784 21.9527 55.4646 19.55 55.4633C18.3775 55.4627 17.0364 55.5876 15.8819 55.4285C15.216 55.3367 14.5357 55.0334 13.9338 54.7405C13.0345 54.3033 12.1989 53.8056 11.4269 53.166C10.5112 52.4075 9.68136 51.4607 8.83356 50.6221C7.97509 49.7731 7.3653 48.8456 6.69779 47.8486C6.05411 46.887 5.38255 45.9521 4.81639 44.94C3.78334 43.093 2.95558 41.1273 2.00715 39.2412C1.80328 38.8359 1.6241 38.3997 1.41483 38.0042C1.16236 37.5267 0.783528 37.06 0.778687 36.4946Z" fill="rgb(255,255,255)" fill-rule="nonzero" />
		<path id="Vector" d="M27.0739 0.010491L41.3925 0C44.535 0.155205 46.4583 2.8854 47.9004 5.40658C48.5018 6.4584 48.9649 7.49831 49.7849 8.40788C50.4844 8.00657 51.1555 7.56434 51.8475 7.15075C52.1836 6.94975 52.5474 6.68297 52.931 6.59534L53.044 6.73184C53.0772 7.58946 47.7759 16.677 46.9064 18.2145C46.7195 18.5879 46.5404 18.9358 46.2766 19.2605C45.9233 19.4125 45.468 19.3768 45.0893 19.3785C44.3374 19.3819 43.5851 19.3827 42.8332 19.3827C40.3735 19.383 37.8927 19.4455 35.4356 19.3446C34.4876 19.3056 33.5583 19.1841 32.6148 19.107C32.3495 19.0853 32.0909 19.1397 31.8274 19.0913C31.6397 19.0567 31.6223 19.0638 31.5157 18.907C31.8455 18.2313 33.0232 17.8305 33.6621 17.4608C34.3248 17.0773 34.8866 16.673 35.5904 16.346C35.2321 15.7902 35.0523 15.1684 34.7905 14.5666C34.4284 13.7345 34.0227 12.9152 33.6175 12.1036C32.8324 10.5297 31.9077 9.06591 30.9553 7.59273C30.2972 6.5746 29.6289 5.51581 28.8569 4.58051C28.381 4.00387 27.8141 3.49993 27.3028 2.95545C26.2849 1.87172 25.3609 0.92574 24.1118 0.0943575L27.0739 0.010491Z" fill="rgb(255,255,255)" fill-rule="nonzero" />
		<path id="Vector" d="M39.121 35.5205L39.3197 35.5917L39.459 39.753C39.7036 39.6372 39.9615 39.5041 40.2305 39.4638C41.256 39.3103 42.4456 39.4205 43.4854 39.4185C46.4935 39.4129 49.5472 39.3582 52.534 39.7219C52.9727 39.7753 53.5578 39.8321 53.9894 39.7153C54.1499 39.672 54.2798 39.5487 54.4446 39.5199C54.7986 39.4582 55.1669 39.4956 55.519 39.4142C55.77 39.3565 55.9937 39.1913 56.2282 39.0886C56.6861 38.8886 57.1603 38.7501 57.6096 38.5239C58.2359 38.2084 58.8679 37.741 59.4229 37.3118C59.6397 37.1441 59.7755 37.0021 60.0546 37.0399C60.1937 37.4295 59.644 38.2159 59.4788 38.6193C59.3727 38.8784 59.3212 39.1591 59.2359 39.4257C58.9376 40.3577 58.3882 41.2622 57.9916 42.1605C56.3597 45.8552 54.8009 49.2465 51.8022 52.0469C51.2024 52.6071 50.5352 53.2367 49.8018 53.6099C46.7266 55.5186 42.8797 55.1516 39.433 55.129C39.5375 55.7652 39.4659 56.4562 39.446 57.0996C39.4144 58.1327 39.4109 59.1683 39.2444 60.1906C39.1181 59.9489 38.997 59.6741 38.8345 59.456C38.6479 59.2051 38.4205 59.0382 38.2597 58.7538C36.6227 55.8629 34.966 52.9845 33.3831 50.0625C32.9881 49.3338 32.4311 48.611 32.1265 47.8488C32.2822 47.0443 32.9832 46.2271 33.3791 45.4974C34.5563 43.3267 35.7606 41.1816 36.9737 39.0312C37.2766 38.4947 37.6055 37.9624 37.8933 37.4196C38.2271 36.7903 38.5879 35.997 39.121 35.5205Z" fill="rgb(255,255,255)" fill-rule="nonzero" />
	</g>
</svg>
